<svg width="194" height="174" viewBox="0 0 194 174" fill="none" xmlns="http://www.w3.org/2000/svg">
<path d="M150.169 92.7334C142.176 129.068 122.75 138.774 122.75 138.774C117.187 142.31 100.842 144.791 88.0177 137.772C74.9448 130.613 68.7303 112.277 65.3267 94.6219" stroke="#230A00" stroke-width="2.46" stroke-miterlimit="10" stroke-linecap="round" stroke-linejoin="round"/>
<path d="M151.179 96.6937C151.179 96.6937 155.44 90.9843 157.811 98.5309C160.79 108.025 150.008 118.441 146.114 114.722" stroke="#230A00" stroke-width="2.6258" stroke-miterlimit="10" stroke-linecap="round" stroke-linejoin="round"/>
<path d="M88.8887 138.855C89.5474 145.736 89.2254 150.288 88.4714 154.541" stroke="#230A00" stroke-width="2.6258" stroke-miterlimit="10" stroke-linecap="round" stroke-linejoin="round"/>
<path d="M123.438 138.855C122.779 145.736 123.101 150.288 123.855 154.541" stroke="#230A00" stroke-width="2.6258" stroke-miterlimit="10" stroke-linecap="round" stroke-linejoin="round"/>
<path d="M94.2834 35.3545C94.2834 35.3545 88.8595 16.8137 104.685 14.5519C104.685 14.5519 105.138 -6.25072 120.51 1.88879C135.881 10.0283 140.214 26.1902 133.173 27.0247C126.131 27.8518 127.317 36.4305 127.317 36.4305C117.633 33.0488 106.529 32.8877 94.2834 35.3545Z" fill="#230A00"/>
<path d="M57.1433 68.9887C57.1433 68.9887 53.747 25.8903 95.0887 24.5581C136.43 23.2259 159.905 36.3575 155.191 71.331C155.191 71.331 155.564 38.3265 110.453 34.6666C65.3414 31.0068 57.1433 68.9887 57.1433 68.9887Z" fill="#230A00"/>
<path d="M63.9798 92.7338C63.9798 92.7338 55.0937 76.5646 57.5751 65.9364C60.0711 55.3082 68.2179 31.9071 104.912 30.5529C140.317 29.2427 150.806 51.0408 154.649 68.1177C157.584 81.1394 150.587 90.7575 150.587 90.7575C150.587 90.7575 139.958 47.0589 103.331 50.6748C66.6954 54.2908 63.9798 92.7338 63.9798 92.7338Z" fill="white" stroke="#230A00" stroke-width="2.46" stroke-miterlimit="10" stroke-linecap="round" stroke-linejoin="round"/>
<path d="M147.103 103.933C147.103 103.933 150.045 97.4768 153.354 101.21" stroke="#230A00" stroke-width="2.6258" stroke-miterlimit="10" stroke-linecap="round" stroke-linejoin="round"/>
<path d="M63.1454 96.6937C63.1454 96.6937 58.8853 90.9843 56.5137 98.5309C53.5346 108.025 64.3165 118.441 68.2106 114.722" stroke="#230A00" stroke-width="2.6258" stroke-miterlimit="10" stroke-linecap="round" stroke-linejoin="round"/>
<path d="M67.2225 103.933C67.2225 103.933 64.2799 97.4768 60.9714 101.21" stroke="#230A00" stroke-width="2.6258" stroke-miterlimit="10" stroke-linecap="round" stroke-linejoin="round"/>
<path d="M100.161 120.168C100.161 120.168 105.695 126.199 114.054 119.743" stroke="#230A00" stroke-width="2.7023" stroke-miterlimit="10" stroke-linecap="round" stroke-linejoin="round"/>
<path d="M105.043 92.2285C105.043 92.2285 102.95 101.305 101.786 104.328C100.622 107.351 100.388 110.147 106.676 109.679" stroke="#230A00" stroke-width="2.7023" stroke-miterlimit="10" stroke-linecap="round" stroke-linejoin="round"/>
<path d="M117.165 86.1171C117.165 86.1171 122.735 83.9212 128.986 86.1171" stroke="#230A00" stroke-width="2.7023" stroke-miterlimit="10" stroke-linecap="round" stroke-linejoin="round"/>
<path d="M93.698 86.1171C93.698 86.1171 88.1277 83.9212 81.8767 86.1171" stroke="#230A00" stroke-width="2.7023" stroke-miterlimit="10" stroke-linecap="round" stroke-linejoin="round"/>
<path d="M117.377 92.8946C117.377 92.8946 116.587 101.759 123.123 100.866C129.015 100.061 128.986 92.2285 128.986 92.2285" stroke="#230A00" stroke-width="2.2438" stroke-miterlimit="10" stroke-linecap="round" stroke-linejoin="round"/>
<path d="M94.7081 92.8945C94.7081 92.8945 95.4987 101.759 88.9622 100.866C83.0698 100.061 82.2646 93.1873 82.2646 93.1873" stroke="#230A00" stroke-width="2.2438" stroke-miterlimit="10" stroke-linecap="round" stroke-linejoin="round"/>
<path d="M128.137 96.5762L131.05 99.5626" stroke="#230A00" stroke-width="2.2438" stroke-miterlimit="10" stroke-linecap="round" stroke-linejoin="round"/>
<path d="M94.7446 96.9131L97.6505 99.8995" stroke="#230A00" stroke-width="2.2438" stroke-miterlimit="10" stroke-linecap="round" stroke-linejoin="round"/>
<path d="M117.341 96.7012L114.94 100.105" stroke="#230A00" stroke-width="2.2438" stroke-miterlimit="10" stroke-linecap="round" stroke-linejoin="round"/>
<path d="M83.0845 96.7012L80.6763 100.105" stroke="#230A00" stroke-width="2.2438" stroke-miterlimit="10" stroke-linecap="round" stroke-linejoin="round"/>
<path d="M122.955 101.415L123.196 105.572" stroke="#230A00" stroke-width="2.2438" stroke-miterlimit="10" stroke-linecap="round" stroke-linejoin="round"/>
<path d="M89.5259 100.976L89.7674 105.141" stroke="#230A00" stroke-width="2.2438" stroke-miterlimit="10" stroke-linecap="round" stroke-linejoin="round"/>
<circle cx="90" cy="121" r="14" fill="#C7BAEA"/>
<path d="M56.7844 164.167L60.3052 147.302C60.3052 147.302 70.2454 119.202 72.4413 120.227C74.6372 121.251 68.2471 138.153 68.2471 138.153C68.2471 138.153 77.9676 111.809 81.6275 113.932C85.1849 115.996 75.113 137.984 75.113 137.984C75.113 137.984 86.2902 111.15 89.1595 112.519C92.0288 113.888 80.4344 139.675 80.4344 139.675C80.4344 139.675 88.6178 116.508 92.2923 118.58C95.0079 120.102 89.1814 133.739 86.195 142.259C85.2068 145.092 83.1793 152.843 81.6421 155.42C79.4682 159.072 77.1844 163.559 74.6152 172.05L56.7844 164.167Z" fill="white"/>
<path d="M56.7844 164.167L60.3052 147.302C60.3052 147.302 70.2454 119.202 72.4413 120.227C74.6372 121.251 68.2471 138.153 68.2471 138.153C68.2471 138.153 77.9676 111.809 81.6275 113.932C85.1849 115.996 75.113 137.984 75.113 137.984C75.113 137.984 86.2902 111.15 89.1595 112.519C92.0288 113.888 80.4344 139.675 80.4344 139.675C80.4344 139.675 88.6178 116.508 92.2923 118.58C95.0079 120.102 89.1814 133.739 86.195 142.259C85.2068 145.092 83.1793 152.843 81.6421 155.42C79.4682 159.072 77.1844 163.559 74.6152 172.05" stroke="#230A00" stroke-width="2.7023" stroke-miterlimit="10" stroke-linecap="round" stroke-linejoin="round"/>
<path d="M24.6074 110.387C29.4151 107.09 36.8097 108.873 40.0311 114.099C43.5861 119.871 41.8696 127.304 40.0637 133.735C38.7051 138.57 37.4442 143.992 38.453 148.812C38.6401 149.715 37.6802 150.35 36.9317 149.797C34.5726 148.054 31.6929 146.988 28.8619 146.434C24.461 145.571 19.9624 145.71 15.537 145.05C11.1116 144.391 6.52357 142.755 3.55433 139.157C0.585104 135.558 -0.0819564 129.607 3.05811 126.392C5.36028 124.039 10.0704 122.973 13.3162 123.518L13.5196 123.583C16.5051 124.088 18.0344 125.097 20.3285 126.213C18.7991 120.701 19.6533 113.774 24.6074 110.387Z" fill="#FFAF91"/>
<path d="M23.2897 77.8561C26.9423 78.1492 29.8464 81.9428 29.3583 85.7689C28.8133 89.994 25.0469 92.941 21.6221 95.367C19.0514 97.1905 16.2937 99.3397 14.8864 102.091C14.6261 102.604 13.9021 102.531 13.7556 101.969C13.292 100.186 12.3076 98.5256 11.1443 97.1335C9.3384 94.9681 7.08504 93.2666 5.18961 91.1907C3.28605 89.1148 1.69975 86.5098 1.66721 83.5791C1.64281 80.6484 3.66026 77.4816 6.46679 77.156C8.51678 76.9199 11.242 78.2631 12.6086 79.8099L12.6818 79.9239C13.9427 81.3485 14.2925 82.4475 14.9677 83.8966C16.3832 80.5995 19.5314 77.5549 23.2897 77.8561Z" fill="#FFBCA3"/>
<path d="M190.803 16.0515C193.975 17.875 194.992 22.5478 192.91 25.796C190.616 29.378 185.954 30.4363 181.822 31.1689C178.723 31.7225 175.306 32.4878 172.865 34.3683C172.41 34.7183 171.783 34.3439 171.897 33.774C172.239 31.9586 172.06 30.0455 171.596 28.2871C170.881 25.5599 169.579 23.0526 168.741 20.3661C167.911 17.6796 167.578 14.635 168.806 11.9811C170.034 9.31904 173.215 7.3164 175.883 8.22003C177.844 8.87943 179.731 11.2565 180.301 13.2429L180.317 13.3732C180.846 15.1967 180.691 16.3446 180.683 17.9401C183.384 15.5793 187.533 14.171 190.803 16.0515Z" fill="#FFBCA3"/>
</svg>
