<svg width="156" height="157" viewBox="0 0 156 157" fill="none" xmlns="http://www.w3.org/2000/svg">
<path d="M50.3323 57.4741C10.0264 57.4962 15.717 91.8904 15.717 91.8904C16.2698 98.9742 14.0511 102.019 15.4443 107.09C16.6458 111.476 19.2699 120.904 22.6386 124.199C27.0171 128.481 31.3735 133.28 36.6513 136.752C41.3247 139.826 59.3842 139.73 63.0256 137.423C67.6621 134.481 71.4362 132.594 75.999 128.238C79.3897 125.002 83.5102 115.442 84.7781 111.115C86.6873 104.591 87.7192 98.2371 88.4785 91.1165C88.4711 91.1091 89.8643 57.452 50.3323 57.4741ZM21.1791 93.8143C21.1791 90.4973 26.1768 88.1901 32.3391 88.1901C38.5015 88.1901 43.4992 90.4899 43.4992 93.8143C43.4992 97.1388 38.5015 99.8293 32.3391 99.8293C26.1768 99.8293 21.1791 97.1314 21.1791 93.8143ZM50.3397 126.631C40.3074 126.631 32.177 122.105 32.177 118.353C32.177 114.601 40.3074 116.252 50.3397 116.252C60.3719 116.252 68.5024 114.601 68.5024 118.353C68.5024 122.105 60.3719 126.631 50.3397 126.631ZM69.6007 99.8219C63.4384 99.8219 58.4407 97.1314 58.4407 93.807C58.4407 90.4825 62.3401 88.1827 68.5024 88.1827C74.6648 88.1827 80.7534 90.4825 80.7534 93.807C80.7534 97.1314 75.7631 99.8219 69.6007 99.8219Z" fill="#FFBCA3"/>
<path d="M134.807 120.542V107.045C134.807 107.045 149.085 109.854 147.493 120.542H134.807Z" fill="#FFBCA3"/>
<path d="M134.807 141.72C123.131 141.72 113.629 132.218 113.629 120.542C113.629 114.712 116.069 109.08 120.322 105.092C120.713 104.724 121.325 104.746 121.694 105.136C122.062 105.527 122.04 106.139 121.649 106.507C117.728 110.186 115.568 115.169 115.568 120.542C115.568 131.15 124.2 139.781 134.807 139.781C145.414 139.781 154.046 131.15 154.046 120.542C154.046 109.935 145.414 101.303 134.807 101.303C131.365 101.303 127.981 102.225 125.033 103.964C124.576 104.237 123.979 104.082 123.706 103.625C123.433 103.168 123.588 102.571 124.045 102.298C127.288 100.382 131.011 99.3647 134.807 99.3647C146.483 99.3647 155.985 108.866 155.985 120.542C155.985 132.218 146.483 141.72 134.807 141.72Z" fill="#230A00"/>
<path d="M52.0499 144.152C45.8434 144.152 38.9439 142.914 32.7668 139.538C21.6288 133.442 14.007 119.024 9.45893 95.4653C9.36311 94.9714 9.68744 94.4997 10.1739 94.4038C10.6678 94.3154 11.1396 94.6323 11.2354 95.1188C15.6729 118.117 22.9999 132.13 33.6292 137.946C46.3962 144.941 62.3476 142.383 67.6843 138.985C67.7064 138.97 67.7359 138.956 67.7654 138.941C67.9571 138.845 87.0559 128.864 94.8989 93.1876C95.0095 92.7011 95.4886 92.3841 95.9825 92.4947C96.469 92.6053 96.7786 93.0844 96.6754 93.5709C88.7366 129.668 69.9178 139.877 68.6279 140.533C65.5614 142.472 59.2738 144.152 52.0499 144.152Z" fill="#230A00"/>
<path d="M93.7419 117.277C92.7025 117.277 91.7811 116.93 91.044 116.223C90.6607 115.854 90.646 115.242 91.0145 114.852C91.3831 114.468 91.9949 114.453 92.3856 114.822C93.5945 115.972 95.6584 114.896 96.4913 114.38C100.265 112.036 104.474 105.564 102.58 99.512C101.968 97.566 101.172 96.4161 100.339 96.276C99.2482 96.0917 97.8993 97.5512 97.597 97.9566C97.2727 98.3842 96.6683 98.4726 96.2407 98.1557C95.8132 97.8387 95.7247 97.2269 96.0417 96.7994C96.2628 96.5045 98.2383 93.9541 100.656 94.3669C102.285 94.647 103.553 96.1802 104.415 98.937C106.487 105.549 102.44 112.957 97.5012 116.031C96.1596 116.864 94.877 117.277 93.7419 117.277Z" fill="#230A00"/>
<path d="M33.666 156.595C33.6071 156.595 33.5555 156.587 33.4965 156.58C32.9731 156.484 32.6193 155.983 32.7151 155.459C33.5776 150.602 33.7029 145.958 33.1206 139.921C33.069 139.39 33.4596 138.918 33.9904 138.867C34.5211 138.823 34.9928 139.206 35.0444 139.737C35.6415 145.951 35.5088 150.757 34.6169 155.791C34.5358 156.263 34.123 156.595 33.666 156.595Z" fill="#230A00"/>
<path d="M69.2911 156.595C68.8341 156.595 68.4213 156.263 68.3402 155.799C67.4409 150.757 67.3156 145.958 67.9127 139.745C67.9643 139.214 68.4434 138.823 68.9668 138.875C69.4975 138.926 69.8882 139.398 69.8366 139.929C69.2616 145.958 69.3796 150.602 70.242 155.467C70.3378 155.991 69.984 156.499 69.4607 156.588C69.4017 156.588 69.3427 156.595 69.2911 156.595Z" fill="#230A00"/>
<path d="M39.5113 35.6034C39.5113 35.6034 34.0493 16.932 49.9859 14.6543C49.9859 14.6543 50.4429 -6.29473 65.9225 1.90209C81.4021 10.0989 85.7659 26.3746 78.6747 27.2149C71.5836 28.0479 72.7777 36.687 72.7777 36.687C63.0256 33.2814 51.8508 33.1193 39.5113 35.6034Z" fill="#230A00"/>
<path d="M51.9543 123.763C44.1629 123.763 38.3175 119.09 38.2291 119.016C37.8163 118.677 37.7573 118.073 38.0964 117.652C38.4355 117.24 39.0399 117.173 39.4601 117.512C39.9466 117.91 51.5415 127.125 63.5124 117.505C63.9252 117.173 64.537 117.232 64.8761 117.652C65.2078 118.073 65.1415 118.677 64.7287 119.016C60.2912 122.576 55.8758 123.763 51.9543 123.763Z" fill="#230A00"/>
<path d="M2.10962 69.474C2.10962 69.474 -1.31064 26.0722 40.3221 24.7306C81.9548 23.3891 105.594 36.6131 100.847 71.8328C100.847 71.8328 101.223 38.5959 55.7943 34.9103C10.3654 31.2247 2.10962 69.474 2.10962 69.474Z" fill="#230A00"/>
<path d="M9.00187 93.3864C9.00187 93.3864 0.0531904 77.1033 2.55204 66.4003C5.05826 55.6973 13.2624 32.1314 50.2145 30.7604C85.8691 29.4409 96.4321 51.3925 100.302 68.5896C103.258 81.703 96.211 91.3888 96.211 91.3888C96.211 91.3888 85.5079 47.3899 48.6223 51.0313C11.7292 54.6727 9.00187 93.3864 9.00187 93.3864Z" fill="white"/>
<path d="M9.00194 94.2933C8.67761 94.2933 8.36801 94.1163 8.20585 93.8215C7.82991 93.1433 -0.882887 77.1109 1.66756 66.1941C7.00434 43.4022 23.7813 30.8343 50.1777 29.8539C78.0483 28.8367 95.2012 41.7879 101.187 68.3907C104.194 81.7548 97.2356 91.5143 96.9408 91.9197C96.7344 92.2072 96.3806 92.3473 96.0341 92.2735C95.6877 92.2072 95.4149 91.9418 95.3265 91.5954C95.297 91.4848 92.5918 80.5975 85.4711 70.3073C76.0065 56.6336 63.6302 50.4491 48.7034 51.9234C12.9898 55.4542 9.92335 93.0623 9.89386 93.4382C9.86438 93.8362 9.5769 94.1753 9.18622 94.2564C9.12725 94.2859 9.06091 94.2933 9.00194 94.2933ZM53.3252 31.6156C52.3153 31.6156 51.2907 31.6378 50.244 31.6746C24.7469 32.6181 8.55967 44.6996 3.42929 66.6143C1.61596 74.3467 6.12716 85.3372 8.47121 90.3202C9.07565 86.6345 10.572 80.0299 14.1692 73.1599C19.1005 63.7174 29.0664 52.0561 48.5265 50.1322C63.9619 48.599 77.2596 55.2478 86.9896 69.3343C92.5033 77.3099 95.3855 85.4478 96.5133 89.1408C98.2897 85.8606 101.533 78.2019 99.4175 68.7962C93.7933 43.8003 78.7043 31.6156 53.3252 31.6156Z" fill="#230A00"/>
<path d="M92.7095 105.637C92.5769 105.637 92.4368 105.608 92.3041 105.549C91.8176 105.328 91.6039 104.753 91.825 104.266C92.0167 103.853 93.7415 100.219 96.3804 99.8214C97.206 99.696 98.4591 99.8508 99.727 101.281C100.081 101.679 100.044 102.291 99.6459 102.645C99.2478 102.998 98.636 102.962 98.2822 102.563C97.4419 101.62 96.8595 101.701 96.6753 101.731C95.319 101.93 93.9627 104.259 93.5941 105.062C93.4246 105.423 93.0707 105.637 92.7095 105.637Z" fill="#230A00"/>
<path d="M11.2281 117.277C10.0929 117.277 8.8103 116.856 7.46874 116.024C2.53001 112.95 -1.5168 105.542 0.55452 98.9297C1.41695 96.1728 2.68481 94.6396 4.31385 94.3595C6.73162 93.9393 8.71448 96.4971 8.92824 96.792C9.24521 97.2195 9.15675 97.824 8.72922 98.1483C8.30169 98.4726 7.69725 98.3842 7.37291 97.9493C6.99698 97.4554 5.69964 96.077 4.63081 96.2686C3.79786 96.4161 3.00177 97.5586 2.39733 99.5046C0.49555 105.556 4.7119 112.028 8.48597 114.372C9.31892 114.888 11.3829 115.972 12.5917 114.815C12.9751 114.446 13.5869 114.461 13.9628 114.844C14.3314 115.227 14.3166 115.847 13.9333 116.215C13.1962 116.93 12.2748 117.277 11.2281 117.277Z" fill="#230A00"/>
<path d="M12.2673 105.638C11.8988 105.638 11.5523 105.431 11.3902 105.07C11.0216 104.267 9.6653 101.937 8.30899 101.738C8.11734 101.709 7.53501 101.628 6.70206 102.571C6.34824 102.969 5.73643 103.006 5.33838 102.652C4.94034 102.299 4.90348 101.687 5.2573 101.289C6.52515 99.8587 7.77826 99.7039 8.60384 99.8292C11.2427 100.227 12.9676 103.854 13.1593 104.274C13.3804 104.761 13.1666 105.335 12.6801 105.557C12.5327 105.608 12.4 105.638 12.2673 105.638Z" fill="#230A00"/>
<path d="M36.6514 94.6098C36.6514 96.6738 35.2656 98.3544 33.5481 98.3544C31.838 98.3544 30.4448 96.6811 30.4448 94.6098C30.4448 92.5459 31.8306 90.8652 33.5481 90.8652C35.2582 90.8652 36.6514 92.5459 36.6514 94.6098Z" fill="#230A00"/>
<path d="M71.1783 94.6098C71.1783 96.6738 69.7925 98.3544 68.075 98.3544C66.3648 98.3544 64.9717 96.6811 64.9717 94.6098C64.9717 92.5459 66.3575 90.8652 68.075 90.8652C69.7925 90.8652 71.1783 92.5459 71.1783 94.6098Z" fill="#230A00"/>
<path d="M149.822 123.786C149.793 123.786 149.763 123.786 149.726 123.778L133.568 122.223C133.111 122.179 132.743 121.817 132.699 121.36L130.989 104.76C130.937 104.23 131.32 103.751 131.851 103.699C132.389 103.647 132.861 104.031 132.912 104.561L134.541 120.373L149.911 121.854C150.441 121.906 150.832 122.378 150.78 122.908C150.736 123.41 150.309 123.786 149.822 123.786Z" fill="#230A00"/>
</svg>
