<svg width="166" height="184" viewBox="0 0 166 184" fill="none" xmlns="http://www.w3.org/2000/svg">
<path d="M149.332 49.5776C148.825 57.9987 149.426 62.3106 141.476 62.1077C146.926 63.5064 149.151 63.8615 149.419 73.616C150.564 64.8254 151.158 63.1006 157.383 62.3686C148.998 62.1947 149.984 58.0494 149.332 49.5776Z" fill="#FFBCA3"/>
<path d="M157.282 129.947C156.775 138.368 157.376 142.68 149.426 142.477C154.876 143.876 157.101 144.231 157.369 153.985C158.514 145.194 159.108 143.47 165.333 142.738C156.949 142.571 157.942 138.426 157.282 129.947Z" fill="#FFBCA3"/>
<path d="M7.85577 46.3955C7.34847 54.8165 7.94998 59.1285 0 58.9256C5.44976 60.3243 7.67459 60.6794 7.94273 70.4339C9.08776 61.6432 9.68201 59.9184 15.9072 59.1865C7.5224 59.0198 8.51524 54.8745 7.85577 46.3955Z" fill="#FFBCA3"/>
<path d="M20.7338 110.923C19.9583 119.323 20.4077 123.656 12.4722 123.185C17.8784 124.758 20.0888 125.185 20.0308 134.947C21.4657 126.2 22.1107 124.49 28.3576 123.968C19.9801 123.526 21.1106 119.417 20.7338 110.923Z" fill="#FFBCA3"/>
<path d="M27.2272 183.379C27.2272 183.379 26.2996 172.979 40.1921 170.284C54.0919 167.595 58.1503 163.964 61.5491 157.891C61.5491 157.891 82.6379 166.319 99.7047 157.891C99.7047 157.891 107.415 169.312 121.163 170.639C134.911 171.965 134.034 182.821 134.034 182.821L27.2272 183.379Z" fill="#FFBCA3"/>
<path d="M124.199 91.8125C116.285 127.787 97.0518 137.396 97.0518 137.396C91.5441 140.897 75.3615 143.353 62.6647 136.403C49.7216 129.316 43.5688 111.162 40.199 93.6822" stroke="#230A00" stroke-width="2.46" stroke-miterlimit="10" stroke-linecap="round" stroke-linejoin="round"/>
<path d="M125.2 95.7337C125.2 95.7337 129.417 90.081 131.765 97.5527C134.715 106.952 124.04 117.265 120.185 113.583" stroke="#230A00" stroke-width="2.6258" stroke-miterlimit="10" stroke-linecap="round" stroke-linejoin="round"/>
<path d="M63.5275 137.476C64.1798 144.288 63.8609 148.796 63.1144 153.006C61.6433 161.275 54.976 167.653 46.6782 168.935C39.1196 170.102 27.22 173.204 27.22 181.139" stroke="#230A00" stroke-width="2.6258" stroke-miterlimit="10" stroke-linecap="round" stroke-linejoin="round"/>
<path d="M97.7331 137.476C97.0809 144.288 97.3997 148.796 98.1462 153.006C99.6173 161.275 106.285 167.653 114.582 168.935C122.141 170.102 134.041 173.204 134.041 181.139" stroke="#230A00" stroke-width="2.6258" stroke-miterlimit="10" stroke-linecap="round" stroke-linejoin="round"/>
<path d="M68.8687 35.0034C68.8687 35.0034 63.4986 16.6467 79.1667 14.4074C79.1667 14.4074 79.616 -6.18865 94.8347 1.87003C110.053 9.92871 114.344 25.9301 107.372 26.7563C100.4 27.5752 101.574 36.0687 101.574 36.0687C91.9867 32.7206 81.0002 32.5611 68.8687 35.0034Z" fill="#230A00"/>
<path d="M91.7036 115.757C79.1663 148.064 66.8608 115.757 66.8608 115.757H91.7036Z" stroke="#230A00" stroke-width="2.46" stroke-miterlimit="10" stroke-linecap="round" stroke-linejoin="round"/>
<path d="M77.7172 89.856C77.7172 89.856 75.7025 98.5886 74.5865 101.495C73.4704 104.408 73.2458 107.089 79.2898 106.647" stroke="#230A00" stroke-width="2.6258" stroke-miterlimit="10" stroke-linecap="round" stroke-linejoin="round"/>
<path d="M32.097 68.3039C32.097 68.3039 28.7344 25.6335 69.6655 24.3145C110.597 22.9956 133.838 35.9967 129.171 70.623C129.171 70.623 129.54 37.9462 84.877 34.3227C40.2137 30.6919 32.097 68.3039 32.097 68.3039Z" fill="#230A00"/>
<path d="M100.661 51.2949C100.661 51.2949 102.676 84.5442 124.612 89.8563C124.924 63.3177 115.481 52.8675 100.661 51.2949Z" fill="#230A00"/>
<path d="M38.8657 91.813C38.8657 91.813 30.0679 75.8043 32.5246 65.2817C34.9886 54.759 43.0545 31.5903 79.3838 30.2423C114.438 28.9451 124.823 50.5267 128.627 67.434C131.533 80.3265 124.605 89.849 124.605 89.849C124.605 89.849 114.083 46.5844 77.8184 50.1644C41.5544 53.7517 38.8657 91.813 38.8657 91.813Z" fill="white" stroke="#230A00" stroke-width="2.46" stroke-miterlimit="10" stroke-linecap="round" stroke-linejoin="round"/>
<path d="M115.294 111.419C117.064 105.842 114.866 100.168 110.384 98.7445C105.901 97.3214 100.832 100.689 99.0618 106.266C97.2911 111.843 99.4893 117.518 103.972 118.941C108.454 120.364 113.523 116.997 115.294 111.419Z" fill="#FFE3D9"/>
<path d="M57.0284 119.238C61.6414 118.323 64.4574 112.928 63.3181 107.188C62.1788 101.448 57.5157 97.5373 52.9027 98.4529C48.2896 99.3686 45.4736 104.764 46.6129 110.504C47.7522 116.243 52.4154 120.154 57.0284 119.238Z" fill="#FFE3D9"/>
<path d="M121.17 102.901C121.17 102.901 124.083 96.5091 127.359 100.205" stroke="#230A00" stroke-width="2.6258" stroke-miterlimit="10" stroke-linecap="round" stroke-linejoin="round"/>
<path d="M38.0395 95.7337C38.0395 95.7337 33.8218 90.081 31.4737 97.5527C28.5242 106.952 39.199 117.265 43.0545 113.583" stroke="#230A00" stroke-width="2.6258" stroke-miterlimit="10" stroke-linecap="round" stroke-linejoin="round"/>
<path d="M42.0762 102.901C42.0762 102.901 39.1629 96.5091 35.8872 100.205" stroke="#230A00" stroke-width="2.6258" stroke-miterlimit="10" stroke-linecap="round" stroke-linejoin="round"/>
<path d="M90.5732 83.9783C90.5732 83.9783 95.936 81.8694 101.944 83.9783" stroke="#230A00" stroke-width="2.6258" stroke-miterlimit="10" stroke-linecap="round" stroke-linejoin="round"/>
<path d="M67.9914 83.9783C67.9914 83.9783 62.6286 81.8694 56.6208 83.9783" stroke="#230A00" stroke-width="2.6258" stroke-miterlimit="10" stroke-linecap="round" stroke-linejoin="round"/>
<path d="M91.1385 94.8273C91.1385 94.8273 91.0515 89.8486 97.9507 89.8486C103.4 89.8486 103.944 95.726 103.944 95.726" stroke="#230A00" stroke-width="2.46" stroke-miterlimit="10" stroke-linecap="round" stroke-linejoin="round"/>
<path d="M54.6282 94.8273C54.6282 94.8273 54.5413 89.8486 61.4404 89.8486C66.8902 89.8486 67.4337 95.726 67.4337 95.726" stroke="#230A00" stroke-width="2.46" stroke-miterlimit="10" stroke-linecap="round" stroke-linejoin="round"/>
</svg>
