<svg width="190" height="174" viewBox="0 0 190 174" fill="none" xmlns="http://www.w3.org/2000/svg">
<path d="M172.779 67.8592L167.09 53.8613L161.188 67.3608C160.811 68.0942 160.583 68.9059 160.54 69.7745C160.398 73.1138 163.117 75.9405 166.613 76.09C170.109 76.2395 173.064 73.6549 173.214 70.3228C173.249 69.4541 173.093 68.6211 172.779 67.8592Z" fill="#C7BAEA"/>
<path d="M12.2446 136.645L6.55575 122.647L0.653266 136.147C0.275906 136.88 0.048066 137.692 0.00534599 138.561C-0.137054 141.9 2.58279 144.727 6.07871 144.876C9.57463 145.026 12.5294 142.441 12.6789 139.109C12.7217 138.24 12.5579 137.407 12.2446 136.645Z" fill="#C7BAEA"/>
<path d="M34.1953 60.4051L28.5064 46.4072L22.6039 59.9067C22.2266 60.6401 21.9987 61.4518 21.956 62.3204C21.8136 65.6597 24.5335 68.4863 28.0294 68.6359C31.5253 68.7854 34.4801 66.2008 34.6296 62.8687C34.6652 62 34.5086 61.167 34.1953 60.4051Z" fill="#C7BAEA"/>
<path d="M189.561 125.525L183.872 111.527L177.969 125.026C177.592 125.76 177.364 126.571 177.322 127.44C177.179 130.779 179.899 133.606 183.395 133.755C186.891 133.905 189.846 131.32 189.995 127.988C190.031 127.12 189.874 126.287 189.561 125.525Z" fill="#C7BAEA"/>
<path d="M92.3593 143.295C86.1934 143.295 79.3297 142.064 73.1922 138.703C62.1206 132.644 54.5449 118.311 50.0237 94.8866C49.9312 94.3953 50.2516 93.9254 50.7357 93.8329C51.227 93.7403 51.6969 94.0607 51.7895 94.5449C56.2039 117.407 63.4805 131.334 74.0537 137.122C86.7487 144.072 102.598 141.53 107.909 138.155C107.938 138.141 107.959 138.126 107.988 138.112C108.18 138.012 127.162 128.094 134.958 92.6296C135.065 92.1454 135.542 91.8393 136.033 91.9461C136.518 92.0529 136.824 92.537 136.717 93.0212C128.828 128.906 110.117 139.052 108.835 139.707C105.795 141.629 99.5505 143.295 92.3593 143.295Z" fill="#230A00"/>
<path d="M133.805 116.581C132.772 116.581 131.854 116.232 131.12 115.535C130.736 115.164 130.722 114.559 131.092 114.175C131.462 113.79 132.067 113.776 132.452 114.146C133.655 115.293 135.706 114.218 136.532 113.705C140.284 111.37 144.47 104.94 142.584 98.9237C141.978 96.9942 141.188 95.8479 140.362 95.7055C139.301 95.5275 138.006 96.8874 137.635 97.3787C137.315 97.8059 136.717 97.8913 136.29 97.5709C135.862 97.2505 135.777 96.6525 136.097 96.2253C136.311 95.9333 138.283 93.4057 140.683 93.8116C142.306 94.0893 143.559 95.6129 144.421 98.3541C146.485 104.926 142.463 112.295 137.55 115.342C136.211 116.161 134.937 116.581 133.805 116.581Z" fill="#230A00"/>
<path d="M79.8991 35.3921C79.8991 35.3921 74.4666 16.8302 90.3086 14.5661C90.3086 14.5661 90.7642 -6.25994 106.151 1.89246C121.551 10.0377 125.887 26.2215 118.838 27.0545C111.79 27.8876 112.979 36.4743 112.979 36.4743C103.274 33.0781 92.1669 32.9143 79.8991 35.3921Z" fill="#230A00"/>
<path d="M91.4687 121.466C87.2323 121.466 84.6335 118.718 84.5979 118.675C84.2419 118.284 84.2632 117.678 84.6548 117.315C85.0464 116.959 85.6516 116.981 86.0147 117.372C86.2212 117.593 90.9418 122.484 98.2327 116.853C98.6527 116.525 99.2579 116.603 99.5855 117.023C99.913 117.444 99.8347 118.049 99.4146 118.376C96.3886 120.704 93.6972 121.466 91.4687 121.466Z" fill="#230A00"/>
<path d="M89.1621 108.842C86.9193 108.842 85.4811 108.329 84.6908 107.269C83.6228 105.83 84.171 103.844 84.7762 102.277C85.8727 99.4295 87.8877 90.7217 87.909 90.6363C88.0301 90.1165 88.5498 89.7961 89.0625 89.9172C89.5822 90.0382 89.9026 90.5508 89.7816 91.0706C89.6961 91.4337 87.7168 99.9991 86.5705 102.968C85.9439 104.591 85.8371 105.588 86.2358 106.122C86.5135 106.493 87.4177 107.091 90.3583 106.87C90.8781 106.827 91.348 107.226 91.3907 107.76C91.4263 108.287 91.0347 108.75 90.5007 108.792C90.0237 108.821 89.5751 108.842 89.1621 108.842Z" fill="#230A00"/>
<path d="M42.7185 69.0629C42.7185 69.0629 39.3152 25.9157 80.7037 24.5842C122.085 23.2457 145.588 36.3963 140.868 71.4053C140.868 71.4053 141.245 38.3685 96.0829 34.7017C50.9279 31.0349 42.7185 69.0629 42.7185 69.0629Z" fill="#230A00"/>
<path d="M112.046 51.8608C112.046 51.8608 114.082 85.4744 136.268 90.85C136.581 64.0147 127.033 53.4486 112.046 51.8608Z" fill="#230A00"/>
<path d="M49.5685 92.8289C49.5685 92.8289 40.6685 76.6452 43.1605 66.0079C45.6525 55.3706 53.8049 31.9387 90.537 30.5788C125.98 29.2687 136.482 51.0915 140.327 68.1866C143.261 81.2233 136.254 90.8496 136.254 90.8496C136.254 90.8496 125.617 47.1043 88.9492 50.7284C52.2812 54.3524 49.5685 92.8289 49.5685 92.8289Z" fill="white"/>
<path d="M49.5683 93.7332C49.2478 93.7332 48.9417 93.5552 48.7779 93.2633C48.4077 92.5869 39.7426 76.6523 42.2845 65.8015C47.5889 43.1385 64.2639 30.65 90.5083 29.6817C118.212 28.6564 135.257 41.5436 141.217 67.9873C144.207 81.2661 137.294 90.9707 136.995 91.3765C136.788 91.6613 136.432 91.7966 136.091 91.7325C135.749 91.6613 135.471 91.405 135.393 91.0632C135.364 90.9564 132.673 80.1269 125.596 69.9026C116.183 56.3105 103.887 50.1588 89.0487 51.6255C53.5483 55.1286 50.501 92.5157 50.4725 92.8931C50.444 93.2918 50.1592 93.6264 49.7676 93.7119C49.6964 93.7261 49.6323 93.7332 49.5683 93.7332ZM93.6339 31.4261C92.63 31.4261 91.6119 31.4474 90.5723 31.483C65.2251 32.4158 49.1339 44.4272 44.036 66.2144C42.2346 73.904 46.7131 84.8261 49.0485 89.7816C49.6466 86.1148 51.1418 79.5573 54.7089 72.7221C59.6146 63.3379 69.5185 51.7466 88.8635 49.8313C104.2 48.3147 117.422 54.915 127.098 68.92C132.58 76.8517 135.443 84.9329 136.568 88.6068C138.333 85.3459 141.559 77.7275 139.451 68.386C133.862 43.5372 118.86 31.4261 93.6339 31.4261Z" fill="#230A00"/>
<path d="M131.113 104.274C131.854 98.4062 128.628 93.1664 123.908 92.5702C119.187 91.9741 114.76 96.2472 114.019 102.115C113.278 107.982 116.504 113.222 121.224 113.818C125.945 114.414 130.372 110.141 131.113 104.274Z" fill="#FFE3D9"/>
<path d="M64.2963 114.679C69.0224 114.13 72.3 108.922 71.6169 103.047C70.9338 97.1729 66.5488 92.8561 61.8226 93.4057C57.0964 93.9553 53.8189 99.163 54.502 105.037C55.185 110.912 59.5701 115.229 64.2963 114.679Z" fill="#FFE3D9"/>
<path d="M132.779 105.005C132.644 105.005 132.509 104.976 132.38 104.919C131.896 104.698 131.683 104.129 131.903 103.645C132.089 103.232 133.812 99.6218 136.432 99.2302C137.251 99.102 138.497 99.2587 139.757 100.683C140.106 101.081 140.07 101.687 139.678 102.043C139.287 102.399 138.675 102.356 138.319 101.964C137.486 101.024 136.909 101.11 136.717 101.138C135.364 101.338 134.018 103.652 133.655 104.449C133.491 104.798 133.142 105.005 132.779 105.005Z" fill="#230A00"/>
<path d="M51.7894 116.582C50.6573 116.582 49.3828 116.169 48.0514 115.336C43.1386 112.281 39.1158 104.919 41.1806 98.3472C42.0421 95.6131 43.2952 94.0823 44.9186 93.8046C47.3251 93.3988 49.2902 95.9335 49.5038 96.2183C49.8242 96.6455 49.7317 97.2436 49.3116 97.564C48.8844 97.8844 48.2863 97.7918 47.9659 97.3718C47.5957 96.8805 46.307 95.5206 45.2389 95.6986C44.413 95.841 43.6227 96.9873 43.0175 98.9168C41.1307 104.933 45.3173 111.37 49.0695 113.698C49.8954 114.211 51.946 115.286 53.1493 114.139C53.5338 113.776 54.139 113.783 54.5092 114.168C54.8794 114.552 54.8652 115.165 54.4807 115.528C53.7402 116.233 52.8218 116.582 51.7894 116.582Z" fill="#230A00"/>
<path d="M52.8145 105.004C52.4514 105.004 52.1025 104.798 51.9388 104.442C51.5756 103.645 50.2228 101.331 48.8772 101.131C48.6849 101.103 48.1082 101.017 47.2752 101.957C46.9192 102.356 46.314 102.391 45.9152 102.043C45.5165 101.687 45.4809 101.081 45.8298 100.683C47.09 99.2586 48.336 99.1091 49.1548 99.2301C51.775 99.6217 53.498 103.232 53.6832 103.645C53.9039 104.129 53.6903 104.698 53.2061 104.919C53.0851 104.976 52.9498 105.004 52.8145 105.004Z" fill="#230A00"/>
<path d="M113.341 85.8726C113.235 85.8726 113.128 85.8583 113.021 85.8156C107.382 83.8363 102.249 85.78 102.199 85.8014C101.7 85.9936 101.145 85.7515 100.953 85.2531C100.76 84.7619 101.003 84.1994 101.494 84.0071C101.729 83.9146 107.318 81.7643 113.662 83.9929C114.16 84.1709 114.424 84.7191 114.253 85.2175C114.103 85.6234 113.733 85.8726 113.341 85.8726Z" fill="#230A00"/>
<path d="M67.5245 85.873C67.1258 85.873 66.7556 85.6238 66.6203 85.2322C66.4423 84.7338 66.7057 84.1784 67.2112 84.0076C73.5552 81.779 79.1444 83.9292 79.3793 84.0218C79.8706 84.214 80.1198 84.7765 79.9204 85.2678C79.7282 85.7591 79.1657 86.0083 78.6744 85.8089C78.5819 85.7733 73.4697 83.8438 67.852 85.8232C67.7381 85.8516 67.6242 85.873 67.5245 85.873Z" fill="#230A00"/>
<path d="M83.0532 131.184C83.7865 130.102 84.3276 128.87 84.6196 127.518C85.8371 121.843 82.2272 116.254 76.5526 115.036C76.0613 114.929 75.5629 114.872 75.0788 114.844C75.1215 114.452 75.15 114.054 75.15 113.648C75.15 107.866 70.465 103.188 64.6907 103.188C59.016 103.188 54.4023 107.71 54.2456 113.349C54.2456 113.356 54.2456 113.356 54.2456 113.363C54.2456 113.463 54.2314 113.555 54.2314 113.655C54.2314 113.69 54.2385 113.719 54.2385 113.755C54.2385 113.99 54.2385 114.224 54.2528 114.467C50.4863 116.047 47.8376 119.771 47.8376 124.114C47.8376 129.084 51.3122 133.242 55.9616 134.303C55.7907 135.058 55.6839 135.848 55.6839 136.652C55.6839 140.056 57.3215 143.075 59.842 144.983C61.1876 146.243 62.868 147.169 64.7975 147.582C69.9239 148.685 74.972 145.83 76.7947 141.088C77.642 142.192 78.8595 143.025 80.3191 143.367C83.6014 144.143 87.019 142.049 87.8236 138.767C88.6352 135.342 86.4779 131.925 83.0532 131.184Z" fill="#FFBCA3"/>
<path d="M127.959 109.013C128.051 108.379 128.051 107.732 127.93 107.069C127.339 103.673 124.1 101.395 120.703 101.993C117.307 102.584 115.036 105.823 115.62 109.22C114.345 108.949 112.992 108.906 111.633 109.141C105.915 110.138 102.092 115.585 103.089 121.302C103.202 121.943 103.38 122.562 103.594 123.153C98.6955 124.748 95.5841 129.725 96.4954 134.944C97.4566 140.448 102.54 144.186 108.016 143.566C109.596 144.435 111.412 144.934 113.341 144.934C118.639 144.934 123.067 141.21 124.157 136.24C125.118 136.454 126.115 136.575 127.14 136.575C134.758 136.575 140.931 130.402 140.931 122.783C140.931 115.428 135.193 109.44 127.959 109.013Z" fill="#FFBCA3"/>
<path d="M146.264 164.477L142.84 148.073C142.84 148.073 133.171 120.739 131.035 121.736C128.899 122.733 135.115 139.173 135.115 139.173C135.115 139.173 125.659 113.548 122.099 115.613C118.639 117.621 128.436 139.009 128.436 139.009C128.436 139.009 117.564 112.907 114.773 114.239C111.982 115.57 123.26 140.654 123.26 140.654C123.26 140.654 115.307 118.126 111.732 120.134C109.091 121.615 114.758 134.88 117.663 143.167C118.625 145.923 120.597 153.463 122.092 155.969C124.207 159.522 126.428 163.886 128.927 172.146L146.264 164.477Z" fill="white"/>
<path d="M128.92 173.1C128.507 173.1 128.122 172.829 128.001 172.416C125.495 164.122 123.281 159.842 121.266 156.453C120.155 154.588 118.866 150.323 117.827 146.891C117.4 145.489 117.037 144.271 116.759 143.481C116.211 141.914 115.57 140.184 114.886 138.354C110.856 127.496 108.599 120.789 111.262 119.294C111.625 119.088 112.224 118.902 112.992 119.194C113.384 119.344 113.79 119.629 114.217 120.02C112.729 114.794 113.434 113.812 114.36 113.37C114.63 113.242 115.064 113.135 115.613 113.349C116.866 113.826 118.703 116.546 120.632 120.063C119.984 116.453 120.703 115.314 121.615 114.78C121.957 114.581 122.519 114.403 123.252 114.666C125.082 115.328 127.467 119.258 129.689 123.801C129.525 121.373 130.258 121.031 130.622 120.868C130.949 120.718 131.326 120.711 131.682 120.86C134.381 121.992 141.017 140.049 143.744 147.76C143.758 147.803 143.772 147.845 143.779 147.881L147.204 164.285C147.311 164.805 146.976 165.318 146.456 165.425C145.937 165.538 145.424 165.197 145.317 164.677L141.907 148.337C138.14 137.699 133.541 126.3 131.519 123.31C131.626 125.731 133.505 132.032 135.606 137.742C135.769 138.183 135.912 138.554 136.019 138.838C136.204 139.337 135.947 139.885 135.456 140.07C134.958 140.255 134.409 140.006 134.217 139.508C134.018 138.988 133.833 138.482 133.655 137.991C129.205 126.222 124.214 116.51 122.548 116.453C122.569 116.46 121.237 117.607 124.883 127.724C125.574 129.639 126.321 131.54 126.998 133.199C128.08 135.649 128.92 137.642 129.333 138.639C129.532 139.123 129.312 139.679 128.827 139.892C128.35 140.099 127.788 139.892 127.567 139.408C127.553 139.372 126.52 137.108 125.246 134.011C121.323 125.161 117.051 116.816 115.264 115.342C115.143 116.873 116.496 121.281 118.518 126.67C121.152 131.968 123.494 138.411 124.171 140.326C124.342 140.811 124.1 141.345 123.623 141.537C123.146 141.729 122.597 141.508 122.391 141.038C122.362 140.974 119.529 134.666 117.079 128.279C116.98 128.023 116.887 127.774 116.795 127.532C113.526 120.889 112.231 120.953 112.224 120.96C112.209 120.967 111.483 121.565 112.864 126.514C113.776 129.796 115.264 133.805 116.702 137.678C117.386 139.522 118.033 141.259 118.582 142.84C118.874 143.673 119.244 144.905 119.678 146.329C120.632 149.483 121.942 153.805 122.932 155.464C125.011 158.952 127.289 163.36 129.86 171.854C130.016 172.359 129.724 172.901 129.219 173.05C129.105 173.093 129.012 173.1 128.92 173.1Z" fill="#230A00"/>
<path d="M36.8086 163.737L40.2333 147.333C40.2333 147.333 49.9023 119.999 52.0383 120.996C54.1743 121.993 47.9585 138.433 47.9585 138.433C47.9585 138.433 57.4139 112.808 60.9739 114.873C64.4342 116.88 54.6371 138.269 54.6371 138.269C54.6371 138.269 65.5093 112.174 68.3075 113.498C71.0985 114.83 59.8204 139.914 59.8204 139.914C59.8204 139.914 67.7735 117.386 71.3477 119.394C73.9892 120.875 68.3217 134.139 65.4168 142.427C64.4556 145.182 62.4833 152.723 60.9881 155.229C58.8735 158.782 56.652 163.146 54.1529 171.405L36.8086 163.737Z" fill="white"/>
<path d="M54.1531 172.367C54.0606 172.367 53.968 172.353 53.8755 172.324C53.3699 172.168 53.078 171.634 53.2347 171.128C55.805 162.634 58.0834 158.234 60.1624 154.738C61.1521 153.079 62.4622 148.757 63.4091 145.603C63.8435 144.179 64.2137 142.94 64.5056 142.107C65.061 140.526 65.7018 138.782 66.3853 136.945C67.8235 133.072 69.3116 129.063 70.223 125.781C71.5971 120.839 70.878 120.241 70.8638 120.234C70.8424 120.234 69.5608 120.156 66.2856 126.806C66.1931 127.048 66.1005 127.297 66.0008 127.554C63.5515 133.94 60.7178 140.249 60.6893 140.313C60.4757 140.783 59.9346 141.003 59.4575 140.811C58.9805 140.619 58.7384 140.085 58.9093 139.601C59.5857 137.685 61.9211 131.242 64.5626 125.944C66.5847 120.562 67.9375 116.147 67.8164 114.617C66.0293 116.083 61.7573 124.435 57.8342 133.285C56.5668 136.382 55.5344 138.647 55.5131 138.682C55.2923 139.159 54.7299 139.373 54.2528 139.166C53.7687 138.953 53.5479 138.397 53.7473 137.913C54.1603 136.916 55.0004 134.93 56.0827 132.481C56.7662 130.822 57.5067 128.921 58.1973 127.005C61.8499 116.859 60.5042 115.734 60.4828 115.72C58.8523 115.791 53.8683 125.503 49.4183 137.272C49.2403 137.764 49.0481 138.269 48.8559 138.789C48.6707 139.287 48.1154 139.537 47.617 139.351C47.1186 139.166 46.8694 138.611 47.0545 138.12C47.1613 137.835 47.2966 137.465 47.4675 137.023C49.5679 131.32 51.4475 125.012 51.5543 122.591C49.5323 125.581 44.9256 136.98 41.1663 147.618L37.7558 163.958C37.649 164.478 37.1363 164.813 36.6166 164.706C36.0968 164.599 35.7622 164.086 35.869 163.567L39.2937 147.162C39.3008 147.119 39.3151 147.077 39.3293 147.041C42.0563 139.33 48.6921 121.274 51.3906 120.142C51.7466 119.992 52.1239 119.992 52.4515 120.149C52.8146 120.32 53.5479 120.661 53.3842 123.082C55.6056 118.54 57.9908 114.609 59.8207 113.947C60.554 113.684 61.1165 113.862 61.4583 114.061C62.3767 114.595 63.0887 115.727 62.4408 119.344C64.3775 115.834 66.2144 113.114 67.4604 112.63C68.0158 112.416 68.4501 112.523 68.7135 112.651C69.6391 113.093 70.344 114.075 68.8559 119.302C69.276 118.903 69.689 118.618 70.0806 118.476C70.8495 118.184 71.4476 118.369 71.8107 118.575C74.4736 120.07 72.2166 126.778 68.1867 137.636C67.5031 139.465 66.8623 141.196 66.3141 142.762C66.0364 143.559 65.6662 144.777 65.239 146.18C64.1995 149.604 62.9107 153.876 61.8 155.742C59.7851 159.131 57.5707 163.403 55.0645 171.705C54.9506 172.096 54.5661 172.367 54.1531 172.367Z" fill="#230A00"/>
<path d="M106.762 101.494C105.388 101.494 104.235 101.06 103.331 100.191C100.831 97.8063 101.23 93.0145 101.251 92.808C101.294 92.3666 101.679 92.0462 102.12 92.0818C102.562 92.1174 102.882 92.509 102.846 92.9504C102.839 92.9932 102.497 97.1868 104.441 99.038C105.196 99.7572 106.207 100.028 107.531 99.8426C112.508 99.1662 112.544 92.3025 112.544 92.2313C112.544 91.7899 112.9 91.4339 113.341 91.4268C113.783 91.4268 114.139 91.7828 114.139 92.2242C114.146 95.1007 112.821 100.733 107.745 101.423C107.403 101.466 107.076 101.494 106.762 101.494Z" fill="#230A00"/>
<path d="M75.2852 101.494C74.9719 101.494 74.6444 101.473 74.3027 101.423C68.0299 100.568 67.1115 93.3273 67.1043 93.2561C67.0545 92.8218 67.3678 92.4231 67.8021 92.3732C68.2364 92.3305 68.6351 92.6367 68.6921 93.071C68.7206 93.3202 69.4824 99.1586 74.5163 99.8421C75.8335 100.02 76.8516 99.7567 77.6063 99.0376C79.5501 97.1864 79.2012 92.9927 79.2012 92.95C79.1656 92.5085 79.486 92.124 79.9275 92.0813C80.3689 92.0457 80.7534 92.3661 80.7961 92.8076C80.8175 93.014 81.2162 97.8058 78.7171 100.191C77.8128 101.053 76.6594 101.494 75.2852 101.494Z" fill="#230A00"/>
<path d="M115.342 100.163C115.136 100.163 114.929 100.084 114.773 99.9205L111.939 97.0155C111.633 96.7022 111.64 96.1967 111.953 95.8834C112.266 95.5773 112.772 95.5844 113.085 95.8977L115.919 98.8026C116.225 99.1159 116.218 99.6214 115.905 99.9347C115.748 100.084 115.549 100.163 115.342 100.163Z" fill="#230A00"/>
<path d="M82.861 100.483C82.6545 100.483 82.4481 100.405 82.2914 100.241L79.4577 97.3363C79.1515 97.023 79.1586 96.5175 79.4719 96.2042C79.7852 95.8981 80.2907 95.9052 80.604 96.2185L83.4377 99.1234C83.7439 99.4367 83.7368 99.9422 83.4235 100.256C83.2669 100.412 83.0675 100.483 82.861 100.483Z" fill="#230A00"/>
<path d="M99.6788 100.69C99.5221 100.69 99.3584 100.64 99.216 100.54C98.8528 100.284 98.7674 99.7854 99.0237 99.4294L101.359 96.1115C101.615 95.7484 102.114 95.6629 102.47 95.9192C102.833 96.1756 102.918 96.674 102.662 97.03L100.327 100.348C100.177 100.576 99.928 100.69 99.6788 100.69Z" fill="#230A00"/>
<path d="M66.3502 100.69C66.1935 100.69 66.0298 100.64 65.8874 100.54C65.5242 100.284 65.4388 99.7854 65.6951 99.4294L68.0305 96.1115C68.2868 95.7484 68.7852 95.6629 69.1412 95.9192C69.5043 96.1756 69.5898 96.674 69.3334 97.03L66.9981 100.348C66.8486 100.576 66.6065 100.69 66.3502 100.69Z" fill="#230A00"/>
<path d="M107.709 106.008C107.289 106.008 106.94 105.68 106.912 105.253L106.677 101.202C106.648 100.76 106.99 100.383 107.425 100.354C107.873 100.34 108.243 100.668 108.272 101.102L108.507 105.153C108.535 105.595 108.194 105.972 107.759 106.001C107.738 106.008 107.724 106.008 107.709 106.008Z" fill="#230A00"/>
<path d="M75.1927 105.588C74.7727 105.588 74.4238 105.261 74.3953 104.834L74.1604 100.782C74.1319 100.341 74.4736 99.9635 74.9079 99.935C75.3565 99.9208 75.7267 100.248 75.7552 100.683L75.9902 104.734C76.0187 105.175 75.6769 105.553 75.2426 105.581C75.2212 105.588 75.207 105.588 75.1927 105.588Z" fill="#230A00"/>
<path d="M152.274 133.762C156.835 133.762 160.533 130.064 160.533 125.503C160.533 120.941 156.835 117.244 152.274 117.244C147.712 117.244 144.015 120.941 144.015 125.503C144.015 130.064 147.712 133.762 152.274 133.762Z" fill="#FFBCA3"/>
<path d="M159.977 108.151C159.977 110.679 157.934 112.722 155.406 112.722C152.879 112.722 150.835 110.679 150.835 108.151C150.835 105.624 152.879 103.58 155.406 103.58C157.934 103.58 159.977 105.631 159.977 108.151Z" fill="#FFBCA3"/>
<path d="M35 124.321C38.7042 124.321 41.707 121.318 41.707 117.614C41.707 113.91 38.7042 110.907 35 110.907C31.2958 110.907 28.293 113.91 28.293 117.614C28.293 121.318 31.2958 124.321 35 124.321Z" fill="#FFBCA3"/>
<path d="M79.3788 154.125C79.3788 156.183 77.7127 157.856 75.6479 157.856C73.5902 157.856 71.917 156.19 71.917 154.125C71.917 152.061 73.5831 150.395 75.6479 150.395C77.7127 150.402 79.3788 152.068 79.3788 154.125Z" fill="#FFBCA3"/>
<path d="M39.3505 133.769C39.3505 135.172 38.2113 136.311 36.8087 136.311C35.406 136.311 34.2668 135.172 34.2668 133.769C34.2668 132.367 35.406 131.228 36.8087 131.228C38.2113 131.22 39.3505 132.36 39.3505 133.769Z" fill="#FFBCA3"/>
<path d="M153.377 83.9579C153.377 85.3605 152.238 86.4997 150.835 86.4997C149.433 86.4997 148.293 85.3605 148.293 83.9579C148.293 82.5552 149.433 81.416 150.835 81.416C152.238 81.416 153.377 82.5552 153.377 83.9579Z" fill="#FFBCA3"/>
<path d="M155.927 147.824C155.927 149.226 154.787 150.365 153.385 150.365C151.982 150.365 150.843 149.226 150.843 147.824C150.843 146.421 151.982 145.282 153.385 145.282C154.787 145.282 155.927 146.414 155.927 147.824Z" fill="#FFBCA3"/>
<path d="M114.318 157.856C114.318 159.259 113.178 160.398 111.776 160.398C110.373 160.398 109.234 159.259 109.234 157.856C109.234 156.454 110.373 155.314 111.776 155.314C113.178 155.314 114.318 156.447 114.318 157.856Z" fill="#FFBCA3"/>
<path d="M37.5419 86.4998C37.5419 87.9025 36.4027 89.0417 35.0001 89.0417C33.5975 89.0417 32.4583 87.9025 32.4583 86.4998C32.4583 85.0972 33.5975 83.958 35.0001 83.958C36.4027 83.958 37.5419 85.0972 37.5419 86.4998Z" fill="#FFBCA3"/>
</svg>
