<svg width="228" height="179" viewBox="0 0 228 179" fill="none" xmlns="http://www.w3.org/2000/svg">
<path d="M118.718 104.102C120.505 104.102 121.953 102.355 121.953 100.199C121.953 98.0441 120.505 96.2969 118.718 96.2969C116.932 96.2969 115.484 98.0441 115.484 100.199C115.484 102.355 116.932 104.102 118.718 104.102Z" fill="#230A00"/>
<path d="M157.936 100.199C157.936 102.351 156.492 104.102 154.702 104.102C152.92 104.102 151.468 102.358 151.468 100.199C151.468 98.0484 152.912 96.2969 154.702 96.2969C156.492 96.2969 157.936 98.0407 157.936 100.199Z" fill="#230A00"/>
<path d="M184.125 97.3267C175.736 135.461 155.348 145.648 155.348 145.648C149.509 149.359 132.354 151.963 118.895 144.596C105.175 137.082 98.6523 117.838 95.0801 99.3087" stroke="#230A00" stroke-width="2.46" stroke-miterlimit="10" stroke-linecap="round" stroke-linejoin="round"/>
<path d="M185.193 101.483C185.193 101.483 189.664 95.4906 192.153 103.411C195.28 113.375 183.964 124.307 179.877 120.404" stroke="#230A00" stroke-width="2.6258" stroke-miterlimit="10" stroke-linecap="round" stroke-linejoin="round"/>
<path d="M119.817 145.733C120.508 152.954 120.17 157.733 119.379 162.196" stroke="#230A00" stroke-width="2.6258" stroke-miterlimit="10" stroke-linecap="round" stroke-linejoin="round"/>
<path d="M156.069 145.733C155.378 152.954 155.716 157.733 156.507 162.196" stroke="#230A00" stroke-width="2.6258" stroke-miterlimit="10" stroke-linecap="round" stroke-linejoin="round"/>
<path d="M125.471 37.1057C125.471 37.1057 119.778 17.6465 136.387 15.2727C136.387 15.2727 136.864 -6.56035 152.996 1.98235C169.129 10.525 173.677 27.4875 166.287 28.3633C158.896 29.2314 160.141 38.235 160.141 38.235C149.977 34.6858 138.331 34.5168 125.471 37.1057Z" fill="#230A00"/>
<path d="M86.4912 72.405C86.4912 72.405 82.9266 27.1718 126.316 25.7736C169.706 24.3754 194.343 38.1574 189.395 74.8633C189.395 74.8633 189.787 40.2239 142.441 36.3828C95.0953 32.534 86.4912 72.405 86.4912 72.405Z" fill="#230A00"/>
<path d="M93.674 97.3273C93.674 97.3273 84.3477 80.3572 86.952 69.2025C89.5639 58.0478 98.1143 33.4876 136.626 32.0587C173.785 30.6835 184.793 53.5614 188.827 71.4841C191.907 85.1509 184.563 95.2454 184.563 95.2454C184.563 95.2454 173.408 49.3822 134.966 53.1773C96.5164 56.98 93.674 97.3273 93.674 97.3273Z" fill="white" stroke="#230A00" stroke-width="2.46" stroke-miterlimit="10" stroke-linecap="round" stroke-linejoin="round"/>
<path d="M180.914 109.081C180.914 109.081 184.002 102.305 187.474 106.223" stroke="#230A00" stroke-width="2.6258" stroke-miterlimit="10" stroke-linecap="round" stroke-linejoin="round"/>
<path d="M92.7982 101.483C92.7982 101.483 88.3271 95.4906 85.838 103.411C82.7113 113.375 94.0273 124.307 98.1143 120.404" stroke="#230A00" stroke-width="2.6258" stroke-miterlimit="10" stroke-linecap="round" stroke-linejoin="round"/>
<path d="M97.0773 109.081C97.0773 109.081 93.989 102.305 90.5166 106.223" stroke="#230A00" stroke-width="2.6258" stroke-miterlimit="10" stroke-linecap="round" stroke-linejoin="round"/>
<path d="M136.772 96.7969C136.772 96.7969 134.574 106.323 133.353 109.496C132.131 112.668 131.886 115.603 138.485 115.111" stroke="#230A00" stroke-width="2.7023" stroke-miterlimit="10" stroke-linecap="round" stroke-linejoin="round"/>
<path d="M150.308 93.432C150.308 93.432 156.154 91.1273 162.715 93.432" stroke="#230A00" stroke-width="2.7023" stroke-miterlimit="10" stroke-linecap="round" stroke-linejoin="round"/>
<path d="M124.864 93.432C124.864 93.432 119.018 91.1273 112.457 93.432" stroke="#230A00" stroke-width="2.7023" stroke-miterlimit="10" stroke-linecap="round" stroke-linejoin="round"/>
<path d="M126.339 132.603C126.339 132.603 125.54 125.536 130.895 126.872C136.249 128.209 138.439 121.695 146.098 123.607C153.749 125.52 149.924 132.219 147.435 132.596C144.946 132.988 126.339 132.603 126.339 132.603Z" stroke="#230A00" stroke-width="2.7023" stroke-miterlimit="10" stroke-linecap="round" stroke-linejoin="round"/>
<path d="M168.584 117.309C170.943 117.309 172.855 115.396 172.855 113.037C172.855 110.678 170.943 108.766 168.584 108.766C166.225 108.766 164.312 110.678 164.312 113.037C164.312 115.396 166.225 117.309 168.584 117.309Z" fill="#FFBCA3"/>
<path d="M156.791 139.249C156.791 141.607 154.879 143.52 152.52 143.52C150.162 143.52 148.249 141.607 148.249 139.249C148.249 136.89 150.162 134.978 152.52 134.978C154.871 134.978 156.791 136.89 156.791 139.249Z" fill="#FFBCA3"/>
<path d="M111.09 115.165C111.09 117.523 109.177 119.436 106.818 119.436C104.46 119.436 102.547 117.523 102.547 115.165C102.547 112.806 104.46 110.894 106.818 110.894C109.177 110.894 111.09 112.806 111.09 115.165Z" fill="#FFBCA3"/>
<path d="M49.739 130.706C48.072 138.342 42.3256 145.003 35.2349 145.21C27.2299 145.441 22.851 138.434 20.7307 130.706C18.8332 123.8 21.9676 119.259 35.2349 116.202C43.0401 114.404 51.4445 122.878 49.739 130.706Z" fill="#FF7B49"/>
<path d="M40.4203 130.207C39.752 132.696 37.3705 134.985 35.2348 135.392C32.4231 135.922 30.0877 133.072 30.0492 130.207C30.0262 128.102 32.3309 126.104 35.2348 125.021C37.9159 124.023 41.1578 127.441 40.4203 130.207Z" fill="white"/>
<path d="M118.918 114.735C118.918 115.672 118.157 116.44 117.213 116.44C116.268 116.44 115.507 115.68 115.507 114.735C115.507 113.798 116.268 113.029 117.213 113.029C118.157 113.029 118.918 113.798 118.918 114.735Z" fill="#FFBCA3"/>
<path d="M129.704 105.977C129.704 106.915 128.943 107.683 127.998 107.683C127.054 107.683 126.293 106.922 126.293 105.977C126.293 105.033 127.054 104.272 127.998 104.272C128.936 104.28 129.704 105.04 129.704 105.977Z" fill="#FFBCA3"/>
<path d="M141.304 78.9193C141.304 79.8566 140.543 80.6248 139.599 80.6248C138.654 80.6248 137.893 79.8643 137.893 78.9193C137.893 77.9821 138.654 77.2139 139.599 77.2139C140.543 77.2139 141.304 77.9744 141.304 78.9193Z" fill="#FFBCA3"/>
<path d="M118.918 78.9193C118.918 79.8566 118.157 80.6248 117.213 80.6248C116.268 80.6248 115.507 79.8643 115.507 78.9193C115.507 77.9821 116.268 77.2139 117.213 77.2139C118.157 77.2139 118.918 77.9744 118.918 78.9193Z" fill="#FFBCA3"/>
<path d="M154.218 88.3544C154.218 89.2916 153.458 90.0599 152.513 90.0599C151.568 90.0599 150.807 89.2993 150.807 88.3544C150.807 87.4095 151.568 86.6489 152.513 86.6489C153.458 86.6489 154.218 87.4172 154.218 88.3544Z" fill="#FFBCA3"/>
<path d="M167.716 77.2143C167.716 78.1515 166.955 78.9197 166.01 78.9197C165.065 78.9197 164.305 78.1592 164.305 77.2143C164.305 76.2693 165.065 75.5088 166.01 75.5088C166.955 75.5088 167.716 76.277 167.716 77.2143Z" fill="#FFBCA3"/>
<path d="M159.642 125.014C159.642 125.951 158.881 126.72 157.936 126.72C156.999 126.72 156.231 125.959 156.231 125.014C156.231 124.077 156.991 123.309 157.936 123.309C158.881 123.316 159.642 124.077 159.642 125.014Z" fill="#FFBCA3"/>
<path d="M137.279 140.954C137.279 141.892 136.518 142.66 135.573 142.66C134.628 142.66 133.868 141.899 133.868 140.954C133.868 140.01 134.628 139.249 135.573 139.249C136.518 139.249 137.279 140.01 137.279 140.954Z" fill="#FFBCA3"/>
<path d="M197.231 168.727L193.536 151.027C193.536 151.027 183.104 121.534 180.799 122.61C178.494 123.685 185.201 141.424 185.201 141.424C185.201 141.424 174.999 113.775 171.158 116.003C167.424 118.17 177.995 141.247 177.995 141.247C177.995 141.247 166.264 113.084 163.253 114.52C160.241 115.957 172.41 143.022 172.41 143.022C172.41 143.022 163.829 118.715 159.972 120.881C157.122 122.479 163.237 136.791 166.372 145.734C167.409 148.707 169.537 156.842 171.15 159.546C173.432 163.38 175.828 168.089 178.525 177L197.231 168.727Z" fill="white"/>
<path d="M197.231 168.727L193.536 151.027C193.536 151.027 183.104 121.534 180.799 122.61C178.494 123.685 185.201 141.424 185.201 141.424C185.201 141.424 174.999 113.775 171.158 116.003C167.424 118.17 177.995 141.247 177.995 141.247C177.995 141.247 166.264 113.084 163.253 114.52C160.241 115.957 172.41 143.022 172.41 143.022C172.41 143.022 163.829 118.715 159.972 120.881C157.122 122.479 163.237 136.791 166.372 145.734C167.409 148.707 169.537 156.842 171.15 159.546C173.432 163.38 175.828 168.089 178.525 177" stroke="#230A00" stroke-width="2.7023" stroke-miterlimit="10" stroke-linecap="round" stroke-linejoin="round"/>
<path d="M54.2284 144.61C61.9076 134.125 59.6331 119.4 49.1481 111.721C38.6632 104.042 23.9383 106.317 16.2591 116.801C8.57993 127.286 10.8545 142.011 21.3394 149.69C31.8243 157.37 46.5493 155.095 54.2284 144.61Z" stroke="#230A00" stroke-width="2.46" stroke-miterlimit="10" stroke-linecap="round" stroke-linejoin="round"/>
<path d="M56.3306 141.676L81.659 141.538L97.0774 128.017" stroke="#230A00" stroke-width="2.46" stroke-miterlimit="10" stroke-linecap="round" stroke-linejoin="round"/>
<path d="M206.081 99.3088L210.337 64.6694L226.101 69.0637L212.657 101.114L206.081 99.3088Z" stroke="#230A00" stroke-width="2.46" stroke-miterlimit="10" stroke-linecap="round" stroke-linejoin="round"/>
<path d="M212.657 113.037C212.657 116.179 210.107 118.729 206.965 118.729C203.822 118.729 201.272 116.179 201.272 113.037C201.272 109.895 203.822 107.344 206.965 107.344C210.107 107.344 212.657 109.887 212.657 113.037Z" fill="#230A00"/>
</svg>
