<svg width="191" height="97" viewBox="0 0 191 97" fill="none" xmlns="http://www.w3.org/2000/svg">
<path d="M5.9314 91.0776V90.0748C5.19085 90.0234 4.52229 89.8897 3.92574 89.6737C3.33946 89.4577 2.84062 89.1697 2.4292 88.8097C2.01778 88.4497 1.69893 88.028 1.47265 87.5446C1.25665 87.0612 1.14866 86.5263 1.14866 85.94C1.14866 85.3641 1.25665 84.8343 1.47265 84.3509C1.69893 83.8675 2.01778 83.451 2.4292 83.1012C2.84062 82.7413 3.33946 82.4533 3.92574 82.2373C4.52229 82.011 5.19085 81.8721 5.9314 81.8207V80.787H7.21195V81.8207C7.9525 81.8721 8.61591 82.011 9.20219 82.2373C9.79875 82.4533 10.3027 82.7413 10.7142 83.1012C11.1359 83.451 11.4547 83.8675 11.6707 84.3509C11.897 84.8343 12.0101 85.3641 12.0101 85.94C12.0101 86.5263 11.897 87.0612 11.6707 87.5446C11.4547 88.028 11.1359 88.4497 10.7142 88.8097C10.3027 89.1697 9.79875 89.4577 9.20219 89.6737C8.61591 89.8897 7.9525 90.0234 7.21195 90.0748V91.0776H5.9314ZM10.6833 85.94C10.6833 85.1172 10.3747 84.4384 9.7576 83.9035C9.15076 83.3687 8.30221 83.055 7.21195 82.9624V88.9177C8.30221 88.8251 9.15076 88.5114 9.7576 87.9766C10.3747 87.4417 10.6833 86.7629 10.6833 85.94ZM2.47548 85.94C2.47548 86.7629 2.77376 87.4417 3.37032 87.9766C3.97716 88.5114 4.83086 88.8251 5.9314 88.9177V82.9624C4.83086 83.055 3.97716 83.3687 3.37032 83.9035C2.77376 84.4384 2.47548 85.1172 2.47548 85.94ZM18.6854 91.2628C17.9242 91.2628 17.23 91.1291 16.6026 90.8616C15.9751 90.5942 15.4351 90.2239 14.9826 89.7508C14.5403 89.2674 14.1957 88.7017 13.9489 88.0537C13.702 87.4057 13.5786 86.7012 13.5786 85.94C13.5786 85.1789 13.702 84.4744 13.9489 83.8264C14.1957 83.1784 14.5403 82.6178 14.9826 82.1447C15.4351 81.6613 15.9751 81.2859 16.6026 81.0184C17.23 80.751 17.9242 80.6173 18.6854 80.6173C19.4465 80.6173 20.1408 80.751 20.7682 81.0184C21.3956 81.2859 21.9304 81.6613 22.3727 82.1447C22.8253 82.6178 23.175 83.1784 23.4218 83.8264C23.6687 84.4744 23.7921 85.1789 23.7921 85.94C23.7921 86.7012 23.6687 87.4057 23.4218 88.0537C23.175 88.7017 22.8253 89.2674 22.3727 89.7508C21.9304 90.2239 21.3956 90.5942 20.7682 90.8616C20.1408 91.1291 19.4465 91.2628 18.6854 91.2628ZM18.6854 90.1211C19.2613 90.1211 19.7808 90.0182 20.2436 89.8125C20.7065 89.5965 21.1024 89.3034 21.4316 88.9331C21.7607 88.5526 22.0127 88.1103 22.1876 87.6063C22.3727 87.092 22.4653 86.5366 22.4653 85.94C22.4653 85.3435 22.3727 84.7881 22.1876 84.2738C22.0127 83.7595 21.7607 83.3172 21.4316 82.947C21.1024 82.5767 20.7065 82.2887 20.2436 82.083C19.7808 81.867 19.2613 81.759 18.6854 81.759C18.1094 81.759 17.5848 81.867 17.1117 82.083C16.6488 82.2887 16.2528 82.5767 15.9237 82.947C15.5946 83.3172 15.3426 83.7595 15.1677 84.2738C14.9929 84.7881 14.9054 85.3435 14.9054 85.94C14.9054 86.5366 14.9929 87.092 15.1677 87.6063C15.3426 88.1103 15.5946 88.5526 15.9237 88.9331C16.2528 89.3034 16.6488 89.5965 17.1117 89.8125C17.5848 90.0182 18.1094 90.1211 18.6854 90.1211ZM25.7923 91.0776V80.787H29.9271C30.4414 80.787 30.8991 80.8693 31.3002 81.0339C31.7014 81.1984 32.0356 81.4247 32.3031 81.7127C32.5808 81.9904 32.7916 82.3195 32.9356 82.7001C33.0796 83.0704 33.1516 83.4664 33.1516 83.8881C33.1516 84.3098 33.0796 84.7109 32.9356 85.0915C32.7916 85.4618 32.5808 85.7909 32.3031 86.0789C32.0253 86.3566 31.6859 86.5777 31.2848 86.7423C30.8837 86.9069 30.4311 86.9892 29.9271 86.9892H27.0729V91.0776H25.7923ZM29.7728 85.8475C30.39 85.8475 30.8837 85.6675 31.2539 85.3075C31.6345 84.9475 31.8248 84.4744 31.8248 83.8881C31.8248 83.3018 31.6345 82.8287 31.2539 82.4687C30.8837 82.1087 30.39 81.9287 29.7728 81.9287H27.0729V85.8475H29.7728ZM43.6415 91.0776V82.6075L40.1393 91.0776H39.6147L36.1279 82.6075V91.0776H34.8474V80.787H36.6833L39.877 88.532L43.0861 80.787H44.922V91.0776H43.6415ZM48.3562 91.2628C47.9243 91.2628 47.5283 91.1856 47.1683 91.0314C46.8083 90.8771 46.5357 90.6816 46.3506 90.4451L46.8906 89.4268C47.0757 89.6222 47.2814 89.7868 47.5077 89.9205C47.7443 90.0542 48.0065 90.1211 48.2945 90.1211C48.5002 90.1211 48.6751 90.0954 48.8191 90.0439C48.9734 89.9925 49.1174 89.9102 49.2511 89.7971C49.3848 89.6737 49.5082 89.5194 49.6214 89.3342C49.7448 89.1491 49.8785 88.9228 50.0225 88.6554L50.2076 88.3006L46.258 80.787H47.7237L50.9482 87.1589L54.1727 80.787H55.6384L51.1487 89.2571C50.9842 89.5657 50.8145 89.8434 50.6396 90.0902C50.4648 90.3371 50.2693 90.5479 50.0533 90.7228C49.8373 90.8976 49.5905 91.0314 49.3128 91.1239C49.0454 91.2165 48.7265 91.2628 48.3562 91.2628ZM55.4419 90.1211C55.7505 90.1211 56.023 90.0697 56.2596 89.9668C56.5064 89.8537 56.7276 89.648 56.923 89.3497C57.1184 89.0411 57.283 88.6194 57.4167 88.0846C57.5607 87.5394 57.6893 86.8297 57.8024 85.9555L58.435 80.787H64.7297V91.0776H63.4491V81.9287H59.5767L59.0675 86.048C58.9235 87.1794 58.7384 88.0897 58.5121 88.7788C58.2961 89.4577 58.0338 89.9822 57.7253 90.3525C57.427 90.7228 57.0876 90.9645 56.707 91.0776C56.3264 91.2011 55.9047 91.2628 55.4419 91.2628V90.1211ZM74.479 91.0776L73.5687 88.7943H68.4466L67.5363 91.0776H66.0706L70.2054 80.787H71.7945L75.9447 91.0776H74.479ZM71.0076 82.1138L68.8168 87.6526H73.183L71.0076 82.1138ZM82.2396 83.4715C82.2396 84.2635 82.4402 84.8601 82.8413 85.2612C83.2527 85.652 83.8493 85.8475 84.631 85.8475C85.063 85.8475 85.4847 85.8166 85.8961 85.7549C86.3075 85.6932 86.6778 85.6058 87.0069 85.4926V80.787H88.2875V91.0776H87.0069V86.6343C86.6675 86.7269 86.2921 86.8092 85.8807 86.8812C85.4693 86.9532 85.0167 86.9892 84.523 86.9892C83.9162 86.9892 83.3865 86.9069 82.9339 86.7423C82.4916 86.5675 82.1213 86.3257 81.8231 86.0172C81.5351 85.7086 81.3191 85.3383 81.1751 84.9063C81.0311 84.4641 80.9591 83.9807 80.9591 83.4561V80.787H82.2396V83.4715ZM90.6994 91.0776V80.787H91.9799V88.8251L97.9043 80.787H99.2157V91.0776H97.9352V82.8698L91.9336 91.0776H90.6994ZM106.498 91.2628C105.757 91.2628 105.063 91.1342 104.415 90.8771C103.777 90.6199 103.217 90.2599 102.733 89.7971C102.26 89.324 101.885 88.7634 101.607 88.1154C101.34 87.4571 101.206 86.732 101.206 85.94C101.206 85.1481 101.34 84.4281 101.607 83.7801C101.885 83.1218 102.26 82.5613 102.733 82.0984C103.217 81.6253 103.777 81.2601 104.415 81.003C105.063 80.7459 105.757 80.6173 106.498 80.6173C106.951 80.6173 107.367 80.6687 107.748 80.7716C108.139 80.8744 108.493 81.0184 108.812 81.2036C109.141 81.3887 109.434 81.6047 109.692 81.8516C109.959 82.0984 110.196 82.3658 110.401 82.6538L109.321 83.2555C109.023 82.8235 108.622 82.4687 108.118 82.191C107.624 81.903 107.084 81.759 106.498 81.759C105.932 81.759 105.408 81.8618 104.924 82.0676C104.441 82.2733 104.019 82.5613 103.659 82.9315C103.309 83.3018 103.032 83.7441 102.826 84.2584C102.631 84.7624 102.533 85.3229 102.533 85.94C102.533 86.5469 102.631 87.1074 102.826 87.6217C103.032 88.136 103.309 88.5783 103.659 88.9485C104.019 89.3188 104.441 89.6068 104.924 89.8125C105.408 90.0182 105.932 90.1211 106.498 90.1211C107.084 90.1211 107.624 89.9822 108.118 89.7045C108.622 89.4268 109.023 89.0668 109.321 88.6245L110.417 89.2263C109.985 89.8125 109.45 90.3011 108.812 90.6919C108.185 91.0725 107.413 91.2628 106.498 91.2628ZM114.594 91.0776V81.9287H111.339V80.787H119.146V81.9287H115.875V91.0776H114.594ZM125.116 91.2628C124.355 91.2628 123.661 91.1291 123.033 90.8616C122.406 90.5942 121.866 90.2239 121.413 89.7508C120.971 89.2674 120.626 88.7017 120.38 88.0537C120.133 87.4057 120.009 86.7012 120.009 85.94C120.009 85.1789 120.133 84.4744 120.38 83.8264C120.626 83.1784 120.971 82.6178 121.413 82.1447C121.866 81.6613 122.406 81.2859 123.033 81.0184C123.661 80.751 124.355 80.6173 125.116 80.6173C125.877 80.6173 126.571 80.751 127.199 81.0184C127.826 81.2859 128.361 81.6613 128.803 82.1447C129.256 82.6178 129.606 83.1784 129.852 83.8264C130.099 84.4744 130.223 85.1789 130.223 85.94C130.223 86.7012 130.099 87.4057 129.852 88.0537C129.606 88.7017 129.256 89.2674 128.803 89.7508C128.361 90.2239 127.826 90.5942 127.199 90.8616C126.571 91.1291 125.877 91.2628 125.116 91.2628ZM125.116 90.1211C125.692 90.1211 126.211 90.0182 126.674 89.8125C127.137 89.5965 127.533 89.3034 127.862 88.9331C128.191 88.5526 128.443 88.1103 128.618 87.6063C128.803 87.092 128.896 86.5366 128.896 85.94C128.896 85.3435 128.803 84.7881 128.618 84.2738C128.443 83.7595 128.191 83.3172 127.862 82.947C127.533 82.5767 127.137 82.2887 126.674 82.083C126.211 81.867 125.692 81.759 125.116 81.759C124.54 81.759 124.015 81.867 123.542 82.083C123.079 82.2887 122.683 82.5767 122.354 82.947C122.025 83.3172 121.773 83.7595 121.598 84.2738C121.423 84.7881 121.336 85.3435 121.336 85.94C121.336 86.5366 121.423 87.092 121.598 87.6063C121.773 88.1103 122.025 88.5526 122.354 88.9331C122.683 89.3034 123.079 89.5965 123.542 89.8125C124.015 90.0182 124.54 90.1211 125.116 90.1211ZM132.223 91.0776V80.787H133.504V88.8251L139.428 80.787H140.739V91.0776H139.459V82.8698L133.457 91.0776H132.223ZM139.181 78.8431C138.873 79.2648 138.482 79.599 138.009 79.8459C137.546 80.0825 137.037 80.2007 136.481 80.2007C135.926 80.2007 135.411 80.0825 134.938 79.8459C134.475 79.599 134.085 79.2648 133.766 78.8431L134.337 78.3494C134.583 78.6888 134.887 78.9613 135.247 79.1671C135.607 79.3625 136.018 79.4602 136.481 79.4602C136.934 79.4602 137.34 79.3625 137.7 79.1671C138.07 78.9716 138.374 78.6991 138.61 78.3494L139.181 78.8431ZM153.341 91.0776L149.438 86.4492L148.404 87.6217V91.0776H147.124V80.787H148.404V86.1097L152.956 80.787H154.56L150.271 85.6778L154.931 91.0776H153.341ZM160.251 91.2628C159.49 91.2628 158.796 91.1291 158.169 90.8616C157.541 90.5942 157.001 90.2239 156.549 89.7508C156.106 89.2674 155.762 88.7017 155.515 88.0537C155.268 87.4057 155.145 86.7012 155.145 85.94C155.145 85.1789 155.268 84.4744 155.515 83.8264C155.762 83.1784 156.106 82.6178 156.549 82.1447C157.001 81.6613 157.541 81.2859 158.169 81.0184C158.796 80.751 159.49 80.6173 160.251 80.6173C161.012 80.6173 161.707 80.751 162.334 81.0184C162.962 81.2859 163.496 81.6613 163.939 82.1447C164.391 82.6178 164.741 83.1784 164.988 83.8264C165.235 84.4744 165.358 85.1789 165.358 85.94C165.358 86.7012 165.235 87.4057 164.988 88.0537C164.741 88.7017 164.391 89.2674 163.939 89.7508C163.496 90.2239 162.962 90.5942 162.334 90.8616C161.707 91.1291 161.012 91.2628 160.251 91.2628ZM160.251 90.1211C160.827 90.1211 161.347 90.0182 161.81 89.8125C162.272 89.5965 162.668 89.3034 162.998 88.9331C163.327 88.5526 163.579 88.1103 163.754 87.6063C163.939 87.092 164.031 86.5366 164.031 85.94C164.031 85.3435 163.939 84.7881 163.754 84.2738C163.579 83.7595 163.327 83.3172 162.998 82.947C162.668 82.5767 162.272 82.2887 161.81 82.083C161.347 81.867 160.827 81.759 160.251 81.759C159.675 81.759 159.151 81.867 158.678 82.083C158.215 82.2887 157.819 82.5767 157.49 82.947C157.161 83.3172 156.909 83.7595 156.734 84.2738C156.559 84.7881 156.471 85.3435 156.471 85.94C156.471 86.5366 156.559 87.092 156.734 87.6063C156.909 88.1103 157.161 88.5526 157.49 88.9331C157.819 89.3034 158.215 89.5965 158.678 89.8125C159.151 90.0182 159.675 90.1211 160.251 90.1211ZM165.95 91.0776L170.609 85.6778L166.32 80.787H167.925L172.06 85.6315V80.787H173.34V85.6315L177.49 80.787H179.095L174.791 85.6778L179.465 91.0776H177.861L173.957 86.4492L173.34 87.1589V91.0776H172.06V87.1589L171.443 86.4492L167.539 91.0776H165.95ZM180.918 91.0776V80.787H182.199V88.8251L188.123 80.787H189.435V91.0776H188.154V82.8698L182.153 91.0776H180.918Z" fill="#2B2827"/>
<path fill-rule="evenodd" clip-rule="evenodd" d="M171.889 56.5589L188.086 0H173.848L164.705 37.6188H164.444L154.386 0H140.148L130.09 37.6188H129.829L120.947 0H106.187L122.253 56.5589H135.838L147.071 18.2869H147.202L158.435 56.5589H171.889ZM41.53 0.000104632L41.9218 36.9658H41.6606L18.9326 0.000104632H3.38867V56.559H16.5814L16.3201 19.5932H16.5814L39.3094 56.559H54.8533V0.000104632H41.53ZM84.8958 53.9463V43.2354H84.7651L77.8422 53.9463H84.8958ZM93.3861 68.184H84.8958V61.5223H68.96V54.0769L82.9364 33.3082H93.3861V53.9463H97.9579V61.3917H93.3861V68.184Z" fill="#2B2827"/>
</svg>
