<svg width="20" height="15" viewBox="0 0 20 15" fill="none" xmlns="http://www.w3.org/2000/svg">
<path d="M0.21028 8.27103C0.0700935 8.13084 0 7.92056 0 7.71028C0 7.57009 0.0700935 7.35981 0.21028 7.14953L1.26168 6.09813C1.54206 5.81776 2.03271 5.81776 2.31308 6.09813L2.38318 6.16822L6.51869 10.5841C6.65888 10.7243 6.86916 10.7243 7.00935 10.5841L17.1028 0.21028H17.1729C17.4533 -0.0700935 17.9439 -0.0700935 18.2243 0.21028L19.2757 1.26168C19.5561 1.54206 19.5561 2.03271 19.2757 2.31308L7.28972 14.7897C7.14953 14.9299 7.00935 15 6.72897 15C6.51869 15 6.3785 14.9299 6.23832 14.7897L0.350467 8.48131L0.21028 8.27103Z" fill="black"/>
</svg>
