<svg width="357" height="132" viewBox="0 0 357 132" fill="none" xmlns="http://www.w3.org/2000/svg">
<path fill-rule="evenodd" clip-rule="evenodd" d="M325.22 109.077L356.457 0H328.999L311.365 72.5498H310.861L291.464 0H264.006L244.609 72.5498H244.105L226.976 0H198.51L229.495 109.077H255.693L277.357 35.2673H277.609L299.274 109.077H325.22ZM73.8148 0.00050994L74.5705 71.2908H74.0667L30.2345 0.00050994H0.257324V109.077H25.7001L25.1963 37.7869H25.7001L69.5323 109.077H99.5095V0.00050994H73.8148ZM157.449 104.038V83.3817H157.197L143.845 104.038H157.449ZM173.823 131.496H157.449V118.649H126.716V104.29L153.67 64.2366H173.823V104.038H182.639V118.397H173.823V131.496Z" fill="#2B2827"/>
</svg>
