<svg width="589" height="218" viewBox="0 0 589 218" fill="none" xmlns="http://www.w3.org/2000/svg">
<path fill-rule="evenodd" clip-rule="evenodd" d="M121.476 0L122.724 117.732H121.892L49.5055 0H0V180.133H42.0173L41.1852 62.4019H42.0173L114.403 180.133H163.909V0H121.476ZM259.591 171.813V137.7H259.175L237.127 171.813H259.591ZM286.632 217.158H259.591V195.942H208.838V172.229L253.351 106.083H286.632V171.813H301.193V195.526H286.632V217.158ZM536.656 180.133L588.241 0H542.896L513.775 119.812H512.943L480.91 0H435.565L403.532 119.812H402.7L374.411 0H327.401L378.571 180.133H421.836L457.613 58.2418H458.029L493.806 180.133H536.656Z" fill="#EBEAEF"/>
</svg>
