<svg width="371" height="168" viewBox="0 0 371 168" fill="none" xmlns="http://www.w3.org/2000/svg">
<path d="M92.5023 64H82.6014V44.6136H60.7917V64H50.96V17.8188H60.7917V35.9589H82.6014V17.8188H92.5023V64ZM111.089 64H101.603V17.8188H111.435V47.66L132.829 17.8188H142.938V64H133.106V33.051L111.089 64ZM160.768 17.8188V30.7661C160.768 36.3513 163.583 39.1438 169.214 39.1438C172.538 39.1438 175.469 38.6361 178.008 37.6206V17.8188H187.839V64H178.008V46.2753C174.638 47.2907 171.315 47.7985 168.037 47.7985C162.314 47.7985 158.021 46.2983 155.159 43.2981C152.297 40.2516 150.867 36.0743 150.867 30.7661V17.8188H160.768ZM229.687 64H197.007V17.8188H229.687V26.4734H206.839V36.2359H229.203V44.8905H206.839V55.3453H229.687V64ZM247.205 64H237.373V17.8188H270.053V26.4734H247.205V64ZM297.116 64.8308C290.146 64.8308 284.377 62.5922 279.807 58.1148C275.283 53.5913 273.022 47.8677 273.022 40.944C273.022 34.0203 275.283 28.3198 279.807 23.8424C284.377 19.3189 290.146 17.0572 297.116 17.0572C304.132 17.0572 309.902 19.2958 314.425 23.7732C318.995 28.2505 321.28 33.9741 321.28 40.944C321.28 47.9139 318.995 53.6375 314.425 58.1148C309.902 62.5922 304.132 64.8308 297.116 64.8308ZM286.938 51.8142C289.523 54.6761 292.916 56.107 297.116 56.107C301.317 56.107 304.709 54.6761 307.294 51.8142C309.879 48.9524 311.171 45.329 311.171 40.944C311.171 36.559 309.879 32.9356 307.294 30.0738C304.709 27.212 301.317 25.7811 297.116 25.7811C292.916 25.7811 289.523 27.212 286.938 30.0738C284.4 32.9356 283.13 36.559 283.13 40.944C283.13 45.329 284.4 48.9524 286.938 51.8142ZM11.3068 148.831V140.107C13.7993 140.107 15.7149 139.115 17.0535 137.13C18.3921 135.099 19.4076 131.198 20.0999 125.429L22.8002 101.819H55.6186V148H45.7177V110.473H31.6625L29.8624 126.121C29.3085 130.783 28.4776 134.66 27.3698 137.753C26.3082 140.799 24.9235 143.107 23.2156 144.677C21.5539 146.246 19.7999 147.331 17.9536 147.931C16.1073 148.531 13.8917 148.831 11.3068 148.831ZM74.205 148H64.7195V101.819H74.5512V131.66L95.9455 101.819H106.054V148H96.2225V117.051L74.205 148ZM164.18 101.819H174.081V148H115.16V101.819H124.992V139.345H139.67V101.819H149.571V139.345H164.18V101.819ZM224.79 148H214.889V128.614H193.079V148H183.248V101.819H193.079V119.959H214.889V101.819H224.79V148ZM266.571 148H233.891V101.819H266.571V110.473H243.723V120.236H266.086V128.891H243.723V139.345H266.571V148ZM284.088 148H274.257V101.819H306.937V110.473H284.088V148ZM334 148.831C327.03 148.831 321.26 146.592 316.691 142.115C312.167 137.591 309.905 131.868 309.905 124.944C309.905 118.02 312.167 112.32 316.691 107.842C321.26 103.319 327.03 101.057 334 101.057C341.016 101.057 346.786 103.296 351.309 107.773C355.879 112.251 358.164 117.974 358.164 124.944C358.164 131.914 355.879 137.637 351.309 142.115C346.786 146.592 341.016 148.831 334 148.831ZM323.822 135.814C326.407 138.676 329.799 140.107 334 140.107C338.2 140.107 341.593 138.676 344.178 135.814C346.763 132.952 348.055 129.329 348.055 124.944C348.055 120.559 346.763 116.936 344.178 114.074C341.593 111.212 338.2 109.781 334 109.781C329.799 109.781 326.407 111.212 323.822 114.074C321.283 116.936 320.014 120.559 320.014 124.944C320.014 129.329 321.283 132.952 323.822 135.814Z" fill="white"/>
<path d="M93.3091 68.3524V70.2449H95.2017V68.3524H93.3091ZM83.4082 68.3524H81.5157V70.2449H83.4082V68.3524ZM83.4082 48.966H85.3007V47.0735H83.4082V48.966ZM61.5985 48.966V47.0735H59.706V48.966H61.5985ZM61.5985 68.3524V70.2449H63.491V68.3524H61.5985ZM51.7668 68.3524H49.8743V70.2449H51.7668V68.3524ZM51.7668 22.1712V20.2787H49.8743V22.1712H51.7668ZM61.5985 22.1712H63.491V20.2787H61.5985V22.1712ZM61.5985 40.3113H59.706V42.2039H61.5985V40.3113ZM83.4082 40.3113V42.2039H85.3007V40.3113H83.4082ZM83.4082 22.1712V20.2787H81.5157V22.1712H83.4082ZM93.3091 22.1712H95.2017V20.2787H93.3091V22.1712ZM93.3091 66.4599H83.4082V70.2449H93.3091V66.4599ZM85.3007 68.3524V48.966H81.5157V68.3524H85.3007ZM83.4082 47.0735H61.5985V50.8585H83.4082V47.0735ZM59.706 48.966V68.3524H63.491V48.966H59.706ZM61.5985 66.4599H51.7668V70.2449H61.5985V66.4599ZM53.6593 68.3524V22.1712H49.8743V68.3524H53.6593ZM51.7668 24.0637H61.5985V20.2787H51.7668V24.0637ZM59.706 22.1712V40.3113H63.491V22.1712H59.706ZM61.5985 42.2039H83.4082V38.4188H61.5985V42.2039ZM85.3007 40.3113V22.1712H81.5157V40.3113H85.3007ZM83.4082 24.0637H93.3091V20.2787H83.4082V24.0637ZM91.4166 22.1712V68.3524H95.2017V22.1712H91.4166ZM111.896 68.3524V70.2449H112.872L113.438 69.4495L111.896 68.3524ZM102.41 68.3524H100.518V70.2449H102.41V68.3524ZM102.41 22.1712V20.2787H100.518V22.1712H102.41ZM112.242 22.1712H114.134V20.2787H112.242V22.1712ZM112.242 52.0124H110.349V57.9002L113.78 53.1151L112.242 52.0124ZM133.636 22.1712V20.2787H132.664L132.098 21.0685L133.636 22.1712ZM143.745 22.1712H145.637V20.2787H143.745V22.1712ZM143.745 68.3524V70.2449H145.637V68.3524H143.745ZM133.913 68.3524H132.02V70.2449H133.913V68.3524ZM133.913 37.4034H135.806V31.4784L132.371 36.3063L133.913 37.4034ZM111.896 66.4599H102.41V70.2449H111.896V66.4599ZM104.303 68.3524V22.1712H100.518V68.3524H104.303ZM102.41 24.0637H112.242V20.2787H102.41V24.0637ZM110.349 22.1712V52.0124H114.134V22.1712H110.349ZM113.78 53.1151L135.174 23.2739L132.098 21.0685L110.704 50.9097L113.78 53.1151ZM133.636 24.0637H143.745V20.2787H133.636V24.0637ZM141.852 22.1712V68.3524H145.637V22.1712H141.852ZM143.745 66.4599H133.913V70.2449H143.745V66.4599ZM135.806 68.3524V37.4034H132.02V68.3524H135.806ZM132.371 36.3063L110.353 67.2553L113.438 69.4495L135.455 38.5004L132.371 36.3063ZM161.574 22.1712H163.467V20.2787H161.574V22.1712ZM178.814 41.973L179.517 43.7302L180.707 43.2543V41.973H178.814ZM178.814 22.1712V20.2787H176.922V22.1712H178.814ZM188.646 22.1712H190.539V20.2787H188.646V22.1712ZM188.646 68.3524V70.2449H190.539V68.3524H188.646ZM178.814 68.3524H176.922V70.2449H178.814V68.3524ZM178.814 50.6277H180.707V48.0807L178.268 48.8157L178.814 50.6277ZM155.966 47.6505L154.587 48.9463L154.592 48.9515L154.597 48.9567L155.966 47.6505ZM151.673 22.1712V20.2787H149.781V22.1712H151.673ZM159.682 22.1712V35.1185H163.467V22.1712H159.682ZM159.682 35.1185C159.682 38.2068 160.462 40.8697 162.353 42.7455C164.242 44.6185 166.918 45.3888 170.021 45.3888V41.6037C167.493 41.6037 165.946 40.9777 165.019 40.0581C164.094 39.1414 163.467 37.6154 163.467 35.1185H159.682ZM170.021 45.3888C173.535 45.3888 176.713 44.8521 179.517 43.7302L178.112 40.2159C175.839 41.1249 173.154 41.6037 170.021 41.6037V45.3888ZM180.707 41.973V22.1712H176.922V41.973H180.707ZM178.814 24.0637H188.646V20.2787H178.814V24.0637ZM186.754 22.1712V68.3524H190.539V22.1712H186.754ZM188.646 66.4599H178.814V70.2449H188.646V66.4599ZM180.707 68.3524V50.6277H176.922V68.3524H180.707ZM178.268 48.8157C175.063 49.7817 171.923 50.2584 168.844 50.2584V54.0434C172.32 54.0434 175.827 53.5046 179.36 52.4397L178.268 48.8157ZM168.844 50.2584C163.436 50.2584 159.721 48.8453 157.336 46.3442L154.597 48.9567C157.935 52.4562 162.806 54.0434 168.844 54.0434V50.2584ZM157.345 46.3547C154.896 43.7467 153.566 40.0805 153.566 35.1185H149.781C149.781 40.7729 151.313 45.4614 154.587 48.9463L157.345 46.3547ZM153.566 35.1185V22.1712H149.781V35.1185H153.566ZM151.673 24.0637H161.574V20.2787H151.673V24.0637ZM230.494 68.3524V70.2449H232.387V68.3524H230.494ZM197.814 68.3524H195.922V70.2449H197.814V68.3524ZM197.814 22.1712V20.2787H195.922V22.1712H197.814ZM230.494 22.1712H232.387V20.2787H230.494V22.1712ZM230.494 30.8258V32.7184H232.387V30.8258H230.494ZM207.646 30.8258V28.9333H205.753V30.8258H207.646ZM207.646 40.5883H205.753V42.4808H207.646V40.5883ZM230.009 40.5883H231.902V38.6958H230.009V40.5883ZM230.009 49.2429V51.1355H231.902V49.2429H230.009ZM207.646 49.2429V47.3504H205.753V49.2429H207.646ZM207.646 59.6978H205.753V61.5903H207.646V59.6978ZM230.494 59.6978H232.387V57.8052H230.494V59.6978ZM230.494 66.4599H197.814V70.2449H230.494V66.4599ZM199.707 68.3524V22.1712H195.922V68.3524H199.707ZM197.814 24.0637H230.494V20.2787H197.814V24.0637ZM228.602 22.1712V30.8258H232.387V22.1712H228.602ZM230.494 28.9333H207.646V32.7184H230.494V28.9333ZM205.753 30.8258V40.5883H209.538V30.8258H205.753ZM207.646 42.4808H230.009V38.6958H207.646V42.4808ZM228.117 40.5883V49.2429H231.902V40.5883H228.117ZM230.009 47.3504H207.646V51.1355H230.009V47.3504ZM205.753 49.2429V59.6978H209.538V49.2429H205.753ZM207.646 61.5903H230.494V57.8052H207.646V61.5903ZM228.602 59.6978V68.3524H232.387V59.6978H228.602ZM248.012 68.3524V70.2449H249.904V68.3524H248.012ZM238.18 68.3524H236.287V70.2449H238.18V68.3524ZM238.18 22.1712V20.2787H236.287V22.1712H238.18ZM270.86 22.1712H272.752V20.2787H270.86V22.1712ZM270.86 30.8258V32.7184H272.752V30.8258H270.86ZM248.012 30.8258V28.9333H246.119V30.8258H248.012ZM248.012 66.4599H238.18V70.2449H248.012V66.4599ZM240.072 68.3524V22.1712H236.287V68.3524H240.072ZM238.18 24.0637H270.86V20.2787H238.18V24.0637ZM268.967 22.1712V30.8258H272.752V22.1712H268.967ZM270.86 28.9333H248.012V32.7184H270.86V28.9333ZM246.119 30.8258V68.3524H249.904V30.8258H246.119ZM280.614 62.4673L279.275 63.8055L279.282 63.8123L279.289 63.8191L280.614 62.4673ZM280.614 28.1948L281.945 29.5399L281.945 29.5398L280.614 28.1948ZM315.232 28.1256L313.901 29.4707L313.908 29.4774L315.232 28.1256ZM315.232 62.4673L313.908 61.1154L313.901 61.1222L315.232 62.4673ZM287.745 56.1667L286.329 57.4226L286.335 57.4289L286.341 57.4352L287.745 56.1667ZM308.101 56.1667L309.505 57.4352L309.505 57.4352L308.101 56.1667ZM308.101 34.4262L306.696 35.6947L306.696 35.6947L308.101 34.4262ZM287.745 34.4262L286.341 33.1576L286.335 33.1639L286.329 33.1703L287.745 34.4262ZM297.923 67.2907C291.4 67.2907 286.121 65.2136 281.938 61.1155L279.289 63.8191C284.246 68.6756 290.507 71.0758 297.923 71.0758V67.2907ZM281.952 61.129C277.814 56.9914 275.721 51.7638 275.721 45.2964H271.936C271.936 52.6765 274.366 58.8961 279.275 63.8055L281.952 61.129ZM275.721 45.2964C275.721 38.829 277.814 33.6287 281.945 29.5399L279.282 26.8498C274.366 31.7156 271.936 37.9164 271.936 45.2964H275.721ZM281.945 29.5398C286.129 25.3983 291.406 23.3021 297.923 23.3021V19.5171C290.501 19.5171 284.238 21.9444 279.282 26.8498L281.945 29.5398ZM297.923 23.3021C304.496 23.3021 309.77 25.3815 313.901 29.4707L316.564 26.7805C311.648 21.915 305.382 19.5171 297.923 19.5171V23.3021ZM313.908 29.4774C318.08 33.565 320.194 38.7849 320.194 45.2964H323.979C323.979 37.8682 321.524 31.6408 316.557 26.7738L313.908 29.4774ZM320.194 45.2964C320.194 51.808 318.08 57.0278 313.908 61.1155L316.557 63.8191C321.524 58.952 323.979 52.7246 323.979 45.2964H320.194ZM313.901 61.1222C309.77 65.2113 304.496 67.2907 297.923 67.2907V71.0758C305.382 71.0758 311.648 68.6779 316.564 63.8123L313.901 61.1222ZM286.341 57.4352C289.319 60.7323 293.241 62.3519 297.923 62.3519V58.5669C294.204 58.5669 291.341 57.3246 289.15 54.8981L286.341 57.4352ZM297.923 62.3519C302.605 62.3519 306.527 60.7323 309.505 57.4352L306.696 54.8981C304.505 57.3246 301.642 58.5669 297.923 58.5669V62.3519ZM309.505 57.4352C312.448 54.1777 313.871 50.0813 313.871 45.2964H310.086C310.086 49.2816 308.924 52.4321 306.696 54.8981L309.505 57.4352ZM313.871 45.2964C313.871 40.5116 312.448 36.4152 309.505 33.1576L306.696 35.6947C308.924 38.1608 310.086 41.3112 310.086 45.2964H313.871ZM309.505 33.1576C306.527 29.8605 302.605 28.2409 297.923 28.2409V32.026C301.642 32.026 304.505 33.2682 306.696 35.6947L309.505 33.1576ZM297.923 28.2409C293.241 28.2409 289.319 29.8605 286.341 33.1576L289.15 35.6947C291.341 33.2682 294.204 32.026 297.923 32.026V28.2409ZM286.329 33.1703C283.439 36.4288 282.045 40.5207 282.045 45.2964H285.83C285.83 41.3021 286.974 38.1472 289.161 35.6821L286.329 33.1703ZM282.045 45.2964C282.045 50.0721 283.439 54.1641 286.329 57.4226L289.161 54.9108C286.974 52.4456 285.83 49.2908 285.83 45.2964H282.045ZM12.1136 153.183H10.2211V155.076H12.1136V153.183ZM12.1136 144.459V142.567H10.2211V144.459H12.1136ZM17.8603 141.482L19.4294 142.54L19.435 142.532L19.4405 142.524L17.8603 141.482ZM20.9068 129.781L22.7858 130.007L22.787 129.996L20.9068 129.781ZM23.607 106.171V104.279H21.9186L21.7267 105.956L23.607 106.171ZM56.4255 106.171H58.318V104.279H56.4255V106.171ZM56.4255 152.352V154.245H58.318V152.352H56.4255ZM46.5245 152.352H44.632V154.245H46.5245V152.352ZM46.5245 114.826H48.4171V112.933H46.5245V114.826ZM32.4694 114.826V112.933H30.7821L30.5893 114.61L32.4694 114.826ZM30.6692 130.473L32.5485 130.697L32.5493 130.69L30.6692 130.473ZM28.1767 142.105L26.395 141.467L26.3922 141.475L26.3895 141.483L28.1767 142.105ZM24.0224 149.029L22.7419 147.636L22.7324 147.644L22.723 147.653L24.0224 149.029ZM18.7604 152.283L19.3454 154.083L19.3454 154.083L18.7604 152.283ZM14.0062 153.183V144.459H10.2211V153.183H14.0062ZM12.1136 146.352C15.2044 146.352 17.722 145.072 19.4294 142.54L16.2913 140.424C15.3215 141.862 14.0079 142.567 12.1136 142.567V146.352ZM19.4405 142.524C21.0499 140.082 22.0943 135.769 22.7858 130.007L19.0277 129.556C18.3345 135.332 17.3479 138.821 16.2801 140.441L19.4405 142.524ZM22.787 129.996L25.4873 106.386L21.7267 105.956L19.0265 129.566L22.787 129.996ZM23.607 108.064H56.4255V104.279H23.607V108.064ZM54.5329 106.171V152.352H58.318V106.171H54.5329ZM56.4255 150.46H46.5245V154.245H56.4255V150.46ZM48.4171 152.352V114.826H44.632V152.352H48.4171ZM46.5245 112.933H32.4694V116.718H46.5245V112.933ZM30.5893 114.61L28.7891 130.257L32.5493 130.69L34.3495 115.042L30.5893 114.61ZM28.7899 130.25C28.2463 134.826 27.4391 138.552 26.395 141.467L29.9583 142.744C31.1298 139.473 31.9843 135.445 32.5485 130.697L28.7899 130.25ZM26.3895 141.483C25.3926 144.343 24.1477 146.344 22.7419 147.636L25.303 150.423C27.3129 148.576 28.8374 145.96 29.9638 142.728L26.3895 141.483ZM22.723 147.653C21.2293 149.064 19.7119 149.984 18.1755 150.483L19.3454 154.083C21.5015 153.382 23.4922 152.133 25.3219 150.405L22.723 147.653ZM18.1755 150.483C16.5689 151.005 14.5615 151.291 12.1136 151.291V155.076C14.8355 155.076 17.2593 154.761 19.3454 154.083L18.1755 150.483ZM75.0119 152.352V154.245H75.9881L76.554 153.449L75.0119 152.352ZM65.5264 152.352H63.6338V154.245H65.5264V152.352ZM65.5264 106.171V104.279H63.6338V106.171H65.5264ZM75.358 106.171H77.2506V104.279H75.358V106.171ZM75.358 136.012H73.4655V141.9L76.8961 137.115L75.358 136.012ZM96.7523 106.171V104.279H95.7805L95.2143 105.068L96.7523 106.171ZM106.861 106.171H108.754V104.279H106.861V106.171ZM106.861 152.352V154.245H108.754V152.352H106.861ZM97.0293 152.352H95.1368V154.245H97.0293V152.352ZM97.0293 121.403H98.9218V115.478L95.4872 120.306L97.0293 121.403ZM75.0119 150.46H65.5264V154.245H75.0119V150.46ZM67.4189 152.352V106.171H63.6338V152.352H67.4189ZM65.5264 108.064H75.358V104.279H65.5264V108.064ZM73.4655 106.171V136.012H77.2506V106.171H73.4655ZM76.8961 137.115L98.2904 107.274L95.2143 105.068L73.82 134.91L76.8961 137.115ZM96.7523 108.064H106.861V104.279H96.7523V108.064ZM104.968 106.171V152.352H108.754V106.171H104.968ZM106.861 150.46H97.0293V154.245H106.861V150.46ZM98.9218 152.352V121.403H95.1368V152.352H98.9218ZM95.4872 120.306L73.4698 151.255L76.554 153.449L98.5714 122.5L95.4872 120.306ZM164.987 106.171V104.279H163.094V106.171H164.987ZM174.888 106.171H176.78V104.279H174.888V106.171ZM174.888 152.352V154.245H176.78V152.352H174.888ZM115.967 152.352H114.074V154.245H115.967V152.352ZM115.967 106.171V104.279H114.074V106.171H115.967ZM125.798 106.171H127.691V104.279H125.798V106.171ZM125.798 143.698H123.906V145.59H125.798V143.698ZM140.477 143.698V145.59H142.369V143.698H140.477ZM140.477 106.171V104.279H138.584V106.171H140.477ZM150.378 106.171H152.27V104.279H150.378V106.171ZM150.378 143.698H148.485V145.59H150.378V143.698ZM164.987 143.698V145.59H166.879V143.698H164.987ZM164.987 108.064H174.888V104.279H164.987V108.064ZM172.995 106.171V152.352H176.78V106.171H172.995ZM174.888 150.46H115.967V154.245H174.888V150.46ZM117.859 152.352V106.171H114.074V152.352H117.859ZM115.967 108.064H125.798V104.279H115.967V108.064ZM123.906 106.171V143.698H127.691V106.171H123.906ZM125.798 145.59H140.477V141.805H125.798V145.59ZM142.369 143.698V106.171H138.584V143.698H142.369ZM140.477 108.064H150.378V104.279H140.477V108.064ZM148.485 106.171V143.698H152.27V106.171H148.485ZM150.378 145.59H164.987V141.805H150.378V145.59ZM166.879 143.698V106.171H163.094V143.698H166.879ZM225.597 152.352V154.245H227.489V152.352H225.597ZM215.696 152.352H213.803V154.245H215.696V152.352ZM215.696 132.966H217.588V131.073H215.696V132.966ZM193.886 132.966V131.073H191.994V132.966H193.886ZM193.886 152.352V154.245H195.779V152.352H193.886ZM184.055 152.352H182.162V154.245H184.055V152.352ZM184.055 106.171V104.279H182.162V106.171H184.055ZM193.886 106.171H195.779V104.279H193.886V106.171ZM193.886 124.311H191.994V126.204H193.886V124.311ZM215.696 124.311V126.204H217.588V124.311H215.696ZM215.696 106.171V104.279H213.803V106.171H215.696ZM225.597 106.171H227.489V104.279H225.597V106.171ZM225.597 150.46H215.696V154.245H225.597V150.46ZM217.588 152.352V132.966H213.803V152.352H217.588ZM215.696 131.073H193.886V134.859H215.696V131.073ZM191.994 132.966V152.352H195.779V132.966H191.994ZM193.886 150.46H184.055V154.245H193.886V150.46ZM185.947 152.352V106.171H182.162V152.352H185.947ZM184.055 108.064H193.886V104.279H184.055V108.064ZM191.994 106.171V124.311H195.779V106.171H191.994ZM193.886 126.204H215.696V122.419H193.886V126.204ZM217.588 124.311V106.171H213.803V124.311H217.588ZM215.696 108.064H225.597V104.279H215.696V108.064ZM223.704 106.171V152.352H227.489V106.171H223.704ZM267.378 152.352V154.245H269.27V152.352H267.378ZM234.698 152.352H232.805V154.245H234.698V152.352ZM234.698 106.171V104.279H232.805V106.171H234.698ZM267.378 106.171H269.27V104.279H267.378V106.171ZM267.378 114.826V116.718H269.27V114.826H267.378ZM244.529 114.826V112.933H242.637V114.826H244.529ZM244.529 124.588H242.637V126.481H244.529V124.588ZM266.893 124.588H268.786V122.696H266.893V124.588ZM266.893 133.243V135.135H268.786V133.243H266.893ZM244.529 133.243V131.35H242.637V133.243H244.529ZM244.529 143.698H242.637V145.59H244.529V143.698ZM267.378 143.698H269.27V141.805H267.378V143.698ZM267.378 150.46H234.698V154.245H267.378V150.46ZM236.59 152.352V106.171H232.805V152.352H236.59ZM234.698 108.064H267.378V104.279H234.698V108.064ZM265.485 106.171V114.826H269.27V106.171H265.485ZM267.378 112.933H244.529V116.718H267.378V112.933ZM242.637 114.826V124.588H246.422V114.826H242.637ZM244.529 126.481H266.893V122.696H244.529V126.481ZM265.001 124.588V133.243H268.786V124.588H265.001ZM266.893 131.35H244.529V135.135H266.893V131.35ZM242.637 133.243V143.698H246.422V133.243H242.637ZM244.529 145.59H267.378V141.805H244.529V145.59ZM265.485 143.698V152.352H269.27V143.698H265.485ZM284.895 152.352V154.245H286.788V152.352H284.895ZM275.064 152.352H273.171V154.245H275.064V152.352ZM275.064 106.171V104.279H273.171V106.171H275.064ZM307.744 106.171H309.636V104.279H307.744V106.171ZM307.744 114.826V116.718H309.636V114.826H307.744ZM284.895 114.826V112.933H283.003V114.826H284.895ZM284.895 150.46H275.064V154.245H284.895V150.46ZM276.956 152.352V106.171H273.171V152.352H276.956ZM275.064 108.064H307.744V104.279H275.064V108.064ZM305.851 106.171V114.826H309.636V106.171H305.851ZM307.744 112.933H284.895V116.718H307.744V112.933ZM283.003 114.826V152.352H286.788V114.826H283.003ZM317.497 146.467L316.159 147.805L316.166 147.812L316.173 147.819L317.497 146.467ZM317.497 112.195L318.829 113.54L318.829 113.54L317.497 112.195ZM352.116 112.126L350.785 113.471L350.792 113.477L352.116 112.126ZM352.116 146.467L350.792 145.115L350.785 145.122L352.116 146.467ZM324.629 140.167L323.213 141.423L323.219 141.429L323.224 141.435L324.629 140.167ZM344.985 140.167L346.389 141.435L346.389 141.435L344.985 140.167ZM344.985 118.426L343.58 119.695L343.58 119.695L344.985 118.426ZM324.629 118.426L323.224 117.158L323.219 117.164L323.213 117.17L324.629 118.426ZM334.807 151.291C328.283 151.291 323.005 149.214 318.822 145.115L316.173 147.819C321.13 152.676 327.39 155.076 334.807 155.076V151.291ZM318.836 145.129C314.698 140.991 312.605 135.764 312.605 129.296H308.82C308.82 136.676 311.25 142.896 316.159 147.805L318.836 145.129ZM312.605 129.296C312.605 122.829 314.698 117.629 318.829 113.54L316.166 110.85C311.25 115.716 308.82 121.916 308.82 129.296H312.605ZM318.829 113.54C323.013 109.398 328.289 107.302 334.807 107.302V103.517C327.384 103.517 321.121 105.944 316.166 110.85L318.829 113.54ZM334.807 107.302C341.38 107.302 346.653 109.382 350.785 113.471L353.447 110.781C348.532 105.915 342.265 103.517 334.807 103.517V107.302ZM350.792 113.477C354.963 117.565 357.078 122.785 357.078 129.296H360.863C360.863 121.868 358.408 115.641 353.441 110.774L350.792 113.477ZM357.078 129.296C357.078 135.808 354.963 141.028 350.792 145.115L353.441 147.819C358.408 142.952 360.863 136.725 360.863 129.296H357.078ZM350.785 145.122C346.653 149.211 341.38 151.291 334.807 151.291V155.076C342.265 155.076 348.532 152.678 353.447 147.812L350.785 145.122ZM323.224 141.435C326.202 144.732 330.124 146.352 334.807 146.352V142.567C331.088 142.567 328.225 141.325 326.033 138.898L323.224 141.435ZM334.807 146.352C339.489 146.352 343.411 144.732 346.389 141.435L343.58 138.898C341.388 141.325 338.525 142.567 334.807 142.567V146.352ZM346.389 141.435C349.331 138.178 350.754 134.081 350.754 129.296H346.969C346.969 133.282 345.808 136.432 343.58 138.898L346.389 141.435ZM350.754 129.296C350.754 124.512 349.331 120.415 346.389 117.158L343.58 119.695C345.808 122.161 346.969 125.311 346.969 129.296H350.754ZM346.389 117.158C343.411 113.861 339.489 112.241 334.807 112.241V116.026C338.525 116.026 341.388 117.268 343.58 119.695L346.389 117.158ZM334.807 112.241C330.124 112.241 326.202 113.861 323.224 117.158L326.033 119.695C328.225 117.268 331.088 116.026 334.807 116.026V112.241ZM323.213 117.17C320.322 120.429 318.928 124.521 318.928 129.296H322.713C322.713 125.302 323.858 122.147 326.045 119.682L323.213 117.17ZM318.928 129.296C318.928 134.072 320.322 138.164 323.213 141.423L326.045 138.911C323.858 136.446 322.713 133.291 322.713 129.296H318.928Z" fill="#BD3582"/>
</svg>
