<svg width="351" height="139" viewBox="0 0 351 139" fill="none" xmlns="http://www.w3.org/2000/svg">
<path d="M82.2791 47V0.818737H72.3782V18.9589H50.5685V0.818737H40.7368V47H50.5685V27.6135H72.3782V47H82.2791Z" fill="white"/>
<path d="M100.866 47L122.883 16.0509V47H132.715V0.818737H122.606L101.212 30.66V0.818737H91.38V47H100.866Z" fill="white"/>
<path d="M150.544 0.818737H140.643V13.7661C140.643 24.0132 146.044 30.7985 157.814 30.7985C161.345 30.7985 164.807 30.1753 167.784 29.2752V47H177.616V0.818737H167.784V20.6206C165.361 21.5899 162.315 22.1438 158.991 22.1438C153.66 22.1438 150.544 19.7897 150.544 13.7661V0.818737Z" fill="white"/>
<path d="M219.464 47V38.3453H196.616V27.8905H218.979V19.2358H196.616V9.47339H219.464V0.818737H186.784V47H219.464Z" fill="white"/>
<path d="M236.982 47V9.47339H259.83V0.818737H227.15V47H236.982Z" fill="white"/>
<path d="M286.893 47.8308C300.879 47.8308 311.057 37.8607 311.057 23.944C311.057 10.0273 300.879 0.0571289 286.893 0.0571289C272.976 0.0571289 262.798 10.0273 262.798 23.944C262.798 37.8607 272.976 47.8308 286.893 47.8308ZM286.893 39.1069C278.377 39.1069 272.907 32.5294 272.907 23.944C272.907 15.2893 278.377 8.78102 286.893 8.78102C295.409 8.78102 300.948 15.2893 300.948 23.944C300.948 32.5294 295.409 39.1069 286.893 39.1069Z" fill="white"/>
<path d="M1.08362 131.831C10.4999 131.831 17.4236 128.3 19.6392 109.121L21.4394 93.4734H35.4945V131H45.3954V84.8187H12.577L9.87675 108.429C8.42276 120.614 5.72251 123.107 1.08362 123.107V131.831Z" fill="white"/>
<path d="M63.9818 131L85.9993 100.051V131H95.831V84.8187H85.7223L64.328 114.66V84.8187H54.4963V131H63.9818Z" fill="white"/>
<path d="M153.957 84.8187V122.345H139.348V84.8187H129.447V122.345H114.768V84.8187H104.937V131H163.858V84.8187H153.957Z" fill="white"/>
<path d="M214.567 131V84.8187H204.666V102.959H182.856V84.8187H173.025V131H182.856V111.614H204.666V131H214.567Z" fill="white"/>
<path d="M256.348 131V122.345H233.499V111.89H255.863V103.236H233.499V93.4734H256.348V84.8187H223.668V131H256.348Z" fill="white"/>
<path d="M273.865 131V93.4734H296.714V84.8187H264.034V131H273.865Z" fill="white"/>
<path d="M323.777 131.831C337.763 131.831 347.94 121.861 347.94 107.944C347.94 94.0273 337.763 84.0571 323.777 84.0571C309.86 84.0571 299.682 94.0273 299.682 107.944C299.682 121.861 309.86 131.831 323.777 131.831ZM323.777 123.107C315.261 123.107 309.791 116.529 309.791 107.944C309.791 99.2893 315.261 92.781 323.777 92.781C332.293 92.781 337.832 99.2893 337.832 107.944C337.832 116.529 332.293 123.107 323.777 123.107Z" fill="white"/>
<path fill-rule="evenodd" clip-rule="evenodd" d="M85.1717 53.2198H71.4857V33.8334H53.461V53.2198H39.8443V3.25355H53.461V21.3937H71.4857V3.25355H85.1717V53.2198ZM73.3782 5.14607H83.2791V51.3273H73.3782V31.9409H51.5685V51.3273H41.7368V5.14607H51.5685V23.2862H73.3782V5.14607ZM102.842 53.2198H90.4875V3.25355H104.104V29.0995L122.634 3.25355H135.607V53.2198H121.99V26.3032L102.842 53.2198ZM101.866 51.3273H92.3801V5.14607H102.212V34.9873L123.606 5.14607H133.715V51.3273H123.883V20.3783L101.866 51.3273ZM153.437 3.25355V18.0934C153.437 20.7973 154.132 22.2962 155.056 23.154C156.008 24.0374 157.562 24.5786 159.991 24.5786C162.572 24.5786 164.931 24.2223 166.892 23.6116V3.25355H180.509V53.2198H166.892V36.0645C164.373 36.6479 161.621 37.0183 158.814 37.0183C152.565 37.0183 147.714 35.2078 144.441 31.7541C141.186 28.3186 139.751 23.531 139.751 18.0934V3.25355H153.437ZM166.892 34.1192C167.541 33.9607 168.173 33.7875 168.784 33.6026V51.3273H178.616V5.14607H168.784V24.9479C166.361 25.9172 163.315 26.4711 159.991 26.4711C154.66 26.4711 151.544 24.1171 151.544 18.0934V5.14607H141.643V18.0934C141.643 28.3405 147.044 35.1258 158.814 35.1258C161.62 35.1258 164.382 34.7324 166.892 34.1192ZM222.357 53.2198H185.892V3.25355H222.357V15.6933H199.508V21.6707H221.872V34.1104H199.508V40.7801H222.357V53.2198ZM220.464 42.6727V51.3273H187.784V5.14607H220.464V13.8007H197.616V23.5632H219.979V32.2178H197.616V42.6727H220.464ZM239.874 53.2198H226.257V3.25355H262.722V15.6933H239.874V53.2198ZM237.982 51.3273H228.15V5.14607H260.83V13.8007H237.982V51.3273ZM313.949 28.2713C313.949 43.2585 302.899 54.0507 287.893 54.0507C272.953 54.0507 261.906 43.2549 261.906 28.2713C261.906 13.2877 272.953 2.49194 287.893 2.49194C302.899 2.49194 313.949 13.2841 313.949 28.2713ZM279.117 37.8103C281.177 40.1128 284.154 41.5417 287.893 41.5417C291.633 41.5417 294.63 40.1116 296.708 37.8053C298.803 35.4807 300.056 32.1609 300.056 28.2713C300.056 24.3443 298.802 21.0268 296.71 18.7136C294.635 16.4183 291.639 15.0009 287.893 15.0009C284.148 15.0009 281.172 16.4171 279.115 18.7086C277.04 21.0197 275.8 24.338 275.8 28.2713C275.8 32.1671 277.038 35.4878 279.117 37.8103ZM0.191101 138.051V125.542H2.08362C3.08307 125.542 3.82656 125.406 4.42366 125.133C4.99624 124.871 5.55484 124.429 6.10181 123.612C7.26805 121.87 8.27325 118.6 8.99702 112.536C8.9972 112.535 8.99738 112.533 8.99756 112.532L11.8886 87.2536H48.288V137.22H34.602V99.6933H24.1266L22.5193 113.665C21.3956 123.392 19.0427 129.582 15.4194 133.314C11.7164 137.127 7.0119 138.051 2.08362 138.051H0.191101ZM22.4394 97.8007H36.4945V135.327H46.3954V89.1461H13.577L10.8768 112.756C9.42277 124.942 6.72252 127.434 2.08362 127.434V136.158C2.72631 136.158 3.35739 136.142 3.97615 136.105C12.4231 135.603 18.5748 131.318 20.6392 113.448L22.4394 97.8007ZM65.9581 137.22H53.6038V87.2536H67.2206V113.1L85.7505 87.2536H98.7235V137.22H85.1068V110.303L65.9581 137.22ZM64.9818 135.327H55.4964V89.1461H65.328V118.987L86.7223 89.1461H96.831V135.327H86.9993V104.378L64.9818 135.327ZM153.064 87.2536H166.75V137.22H104.044V87.2536H117.661V124.78H128.554V87.2536H142.24V124.78H153.064V87.2536ZM154.957 89.1461H164.858V135.327H105.937V89.1461H115.768V126.673H130.447V89.1461H140.348V126.673H154.957V89.1461ZM217.459 137.22H203.773V117.833H185.749V137.22H172.132V87.2536H185.749V105.394H203.773V87.2536H217.459V137.22ZM205.666 89.1461H215.567V135.327H205.666V115.941H183.856V135.327H174.025V89.1461H183.856V107.286H205.666V89.1461ZM259.24 137.22H222.775V87.2536H259.24V99.6933H236.392V105.671H258.756V118.11H236.392V124.78H259.24V137.22ZM257.348 126.673V135.327H224.668V89.1461H257.348V97.8007H234.499V107.563H256.863V116.218H234.499V126.673H257.348ZM276.758 137.22H263.141V87.2536H299.606V99.6933H276.758V137.22ZM274.865 135.327H265.034V89.1461H297.714V97.8007H274.865V135.327ZM350.833 112.271C350.833 127.258 339.782 138.051 324.777 138.051C309.837 138.051 298.79 127.255 298.79 112.271C298.79 97.2877 309.837 86.4919 324.777 86.4919C339.782 86.4919 350.833 97.2841 350.833 112.271ZM316 121.81C318.061 124.113 321.038 125.542 324.777 125.542C328.517 125.542 331.513 124.112 333.592 121.805C335.687 119.481 336.939 116.161 336.939 112.271C336.939 108.344 335.686 105.027 333.594 102.714C331.519 100.418 328.523 99.0009 324.777 99.0009C321.032 99.0009 318.056 100.417 315.998 102.709C313.924 105.02 312.683 108.338 312.683 112.271C312.683 116.167 313.922 119.488 316 121.81ZM312.057 28.2713C312.057 42.188 301.879 52.1582 287.893 52.1582C273.976 52.1582 263.798 42.188 263.798 28.2713C263.798 14.3546 273.976 4.38447 287.893 4.38447C301.879 4.38447 312.057 14.3546 312.057 28.2713ZM273.907 28.2713C273.907 36.8567 279.377 43.4343 287.893 43.4343C296.409 43.4343 301.948 36.8567 301.948 28.2713C301.948 19.6167 296.409 13.1084 287.893 13.1084C279.377 13.1084 273.907 19.6167 273.907 28.2713ZM348.94 112.271C348.94 126.188 338.763 136.158 324.777 136.158C310.86 136.158 300.682 126.188 300.682 112.271C300.682 98.3546 310.86 88.3845 324.777 88.3845C338.763 88.3845 348.94 98.3546 348.94 112.271ZM310.791 112.271C310.791 120.857 316.261 127.434 324.777 127.434C333.293 127.434 338.832 120.857 338.832 112.271C338.832 103.617 333.293 97.1084 324.777 97.1084C316.261 97.1084 310.791 103.617 310.791 112.271Z" fill="#BD3582"/>
</svg>
